<svg width="134" height="134" viewBox="0 0 134 134" fill="none" xmlns="http://www.w3.org/2000/svg">
<path d="M81.5185 15.4655H51.8889L37.8998 29.7216L16.3333 51.6999L3 69.5202C13.9805 60.4529 21.5136 55.7025 32.9259 53.9582C35.8824 53.5063 39.0992 53.2562 42.7037 53.1849C53.763 53.9768 55.8402 66.9808 57.5185 78.1333L57.5613 78.4174C58.1539 82.3574 58.699 85.9809 59.6238 89.1224H73.5911C74.4471 85.7773 74.9503 81.9784 75.4417 78.1333L75.5081 77.613C77.0076 65.8611 78.5401 53.8497 89.8148 53.1849C93.5959 53.4015 97.0324 53.8155 100.185 54.3945C114.327 56.9916 122.762 62.9088 131 69.2232L116.185 50.8089L95.5017 29.7216L81.5185 15.4655Z" fill="#40E9DB"/>
<path d="M117.37 3.2883C99.9998 2.63012 92.7923 6.32861 81.5185 15.4655L95.5017 29.7216L117.37 3.2883Z" fill="#A4FFFC"/>
<path d="M116.185 50.8089C120.333 37.7407 121.815 13.0894 117.37 3.2883L95.5017 29.7216L116.185 50.8089Z" fill="#BBBBBB"/>
<path d="M116.185 50.8089C120.333 37.7407 121.815 13.0894 117.37 3.2883L95.5017 29.7216L116.185 50.8089Z" fill="#29D0C8"/>
<path d="M100.185 54.3945C97.0324 53.8155 93.5959 53.4015 89.8148 53.1849C78.5401 53.8497 77.0076 65.8611 75.5081 77.613L75.4417 78.1333C78.3469 71.7438 83.6554 69.0877 88.6321 66.5977C94.0652 63.8794 99.1027 61.3589 100.185 54.3945Z" fill="#32F4E2"/>
<path d="M57.5185 78.1333C55.8402 66.9808 53.763 53.9768 42.7037 53.1849C39.0992 53.2562 35.8824 53.5063 32.9259 53.9582C35.5652 60.6399 40.9932 64.1105 46.2155 67.4497C50.8349 70.4034 55.2934 73.2541 57.5185 78.1333Z" fill="#BBBBBB"/>
<path d="M57.5185 78.1333C55.8402 66.9808 53.763 53.9768 42.7037 53.1849C39.0992 53.2562 35.8824 53.5063 32.9259 53.9582C35.5652 60.6399 40.9932 64.1105 46.2155 67.4497C50.8349 70.4034 55.2934 73.2541 57.5185 78.1333Z" fill="#32F4E2"/>
<path d="M51.8889 15.4655C38.3793 4.23225 30.0406 2.11039 14.2593 3.2883L37.8998 29.7216L51.8889 15.4655Z" fill="#BBBBBB"/>
<path d="M51.8889 15.4655C38.3793 4.23225 30.0406 2.11039 14.2593 3.2883L37.8998 29.7216L51.8889 15.4655Z" fill="#A4FFFC"/>
<path d="M16.3333 51.6999L37.8998 29.7216L14.2593 3.2883C10.7704 22.4746 12.768 32.9421 15.3388 46.4125C15.6644 48.1188 15.9993 49.8734 16.3333 51.6999Z" fill="#BBBBBB"/>
<path d="M16.3333 51.6999L37.8998 29.7216L14.2593 3.2883C10.7704 22.4746 12.768 32.9421 15.3388 46.4125C15.6644 48.1188 15.9993 49.8734 16.3333 51.6999Z" fill="#2CCAC2"/>
<path d="M118.852 70.7082C118.852 70.7082 123.296 67.7381 131 69.2232C122.762 62.9088 114.327 56.9916 100.185 54.3945C99.1027 61.3589 94.0652 63.8794 88.6321 66.5977C83.6554 69.0877 78.3469 71.7438 75.4417 78.1333C74.9503 81.9784 74.4471 85.7773 73.5911 89.1224C72.4284 93.666 70.615 97.3725 67.2963 99.2206C63.0878 97.1924 60.9596 93.6602 59.6238 89.1224C58.699 85.9809 58.1539 82.3574 57.5613 78.4174L57.5185 78.1333C55.2934 73.2541 50.8349 70.4034 46.2155 67.4497C40.9932 64.1105 35.5652 60.6399 32.9259 53.9582C21.5136 55.7025 13.9805 60.4529 3 69.5202C6.85383 69.3203 16.3333 71.5992 16.3333 71.5992C16.3333 71.5992 28.1852 74.2722 37.0741 83.2714C40.9834 86.7342 44.5271 90.5468 47.8521 94.1243C54.8448 101.648 60.8704 108.131 67.2963 108.131C76.7778 108.131 96.2889 83.2714 96.2889 83.2714C108.481 73.9752 118.852 70.7082 118.852 70.7082Z" fill="#BBBBBB"/>
<path d="M118.852 70.7082C118.852 70.7082 123.296 67.7381 131 69.2232C122.762 62.9088 114.327 56.9916 100.185 54.3945C99.1027 61.3589 94.0652 63.8794 88.6321 66.5977C83.6554 69.0877 78.3469 71.7438 75.4417 78.1333C74.9503 81.9784 74.4471 85.7773 73.5911 89.1224C72.4284 93.666 70.615 97.3725 67.2963 99.2206C63.0878 97.1924 60.9596 93.6602 59.6238 89.1224C58.699 85.9809 58.1539 82.3574 57.5613 78.4174L57.5185 78.1333C55.2934 73.2541 50.8349 70.4034 46.2155 67.4497C40.9932 64.1105 35.5652 60.6399 32.9259 53.9582C21.5136 55.7025 13.9805 60.4529 3 69.5202C6.85383 69.3203 16.3333 71.5992 16.3333 71.5992C16.3333 71.5992 28.1852 74.2722 37.0741 83.2714C40.9834 86.7342 44.5271 90.5468 47.8521 94.1243C54.8448 101.648 60.8704 108.131 67.2963 108.131C76.7778 108.131 96.2889 83.2714 96.2889 83.2714C108.481 73.9752 118.852 70.7082 118.852 70.7082Z" fill="#EBF8FB"/>
<path d="M118.852 88.2314V70.7082C118.852 70.7082 108.481 73.9752 96.2889 83.2714L97.1199 111.981C97.1199 111.981 117.543 92.0224 118.852 88.2314Z" fill="#BBBBBB"/>
<path d="M118.852 88.2314V70.7082C118.852 70.7082 108.481 73.9752 96.2889 83.2714L97.1199 111.981C97.1199 111.981 117.543 92.0224 118.852 88.2314Z" fill="#2CCAC2"/>
<path d="M67.2963 108.131V131C75.2963 131 85.8899 121.918 97.1199 111.981L96.2889 83.2714C96.2889 83.2714 76.7778 108.131 67.2963 108.131Z" fill="#BBBBBB"/>
<path d="M67.2963 108.131V131C75.2963 131 85.8899 121.918 97.1199 111.981L96.2889 83.2714C96.2889 83.2714 76.7778 108.131 67.2963 108.131Z" fill="#2CCAC2"/>
<path d="M67.2963 131V108.131C60.8704 108.131 54.8448 101.648 47.8521 94.1243C44.5271 90.5468 40.9834 86.7342 37.0741 83.2714V110.21C37.0741 110.21 59.2963 131 67.2963 131Z" fill="#BBBBBB"/>
<path d="M67.2963 131V108.131C60.8704 108.131 54.8448 101.648 47.8521 94.1243C44.5271 90.5468 40.9834 86.7342 37.0741 83.2714V110.21C37.0741 110.21 59.2963 131 67.2963 131Z" fill="#40E9DB"/>
<path d="M16.3333 71.5992L15.1481 87.9344C15.1481 94.7655 37.0741 110.21 37.0741 110.21V83.2714C28.1852 74.2722 16.3333 71.5992 16.3333 71.5992Z" fill="#BBBBBB"/>
<path d="M16.3333 71.5992L15.1481 87.9344C15.1481 94.7655 37.0741 110.21 37.0741 110.21V83.2714C28.1852 74.2722 16.3333 71.5992 16.3333 71.5992Z" fill="#40E9DB"/>
<path d="M67.2963 99.2206C70.615 97.3725 72.4284 93.666 73.5911 89.1224H59.6238C60.9596 93.6602 63.0878 97.1924 67.2963 99.2206Z" fill="#BBBBBB"/>
<path d="M67.2963 99.2206C70.615 97.3725 72.4284 93.666 73.5911 89.1224H59.6238C60.9596 93.6602 63.0878 97.1924 67.2963 99.2206Z" fill="#29D0C8"/>
<path d="M14.2593 3.2883L14.0732 0.795232C12.9379 0.879967 12.0033 1.72098 11.7996 2.84102L14.2593 3.2883ZM117.37 3.2883L119.647 2.25583C119.256 1.39339 118.411 0.825945 117.465 0.79009L117.37 3.2883ZM131 69.2232L130.527 71.678C131.557 71.8765 132.601 71.4111 133.142 70.5125C133.683 69.6139 133.605 68.4732 132.948 67.6561L131 69.2232ZM118.852 88.2314L121.215 89.0475C121.306 88.7849 121.352 88.5092 121.352 88.2314H118.852ZM15.1481 87.9344L12.6547 87.7535C12.6503 87.8137 12.6481 87.874 12.6481 87.9344H15.1481ZM3 69.5202L0.998284 68.0225C0.417303 68.7989 0.337802 69.8414 0.794312 70.697C1.25082 71.5526 2.16097 72.067 3.12946 72.0168L3 69.5202ZM97.1199 111.981L98.7765 113.854C98.8075 113.826 98.8377 113.798 98.8673 113.769L97.1199 111.981ZM96.2889 83.2714L94.7731 81.2833C94.6046 81.4118 94.4531 81.5612 94.3223 81.7279L96.2889 83.2714ZM42.7037 53.1849L42.8822 50.6913C42.8064 50.6859 42.7304 50.6839 42.6543 50.6854L42.7037 53.1849ZM67.2963 99.2206L66.211 101.473C66.9436 101.826 67.8021 101.8 68.5126 101.405L67.2963 99.2206ZM89.8148 53.1849L89.9578 50.689C89.8612 50.6835 89.7643 50.6836 89.6677 50.6893L89.8148 53.1849ZM37.8998 29.7216L39.6842 31.4726L39.6842 31.4726L37.8998 29.7216ZM100.185 54.3945L100.637 51.9357L100.637 51.9357L100.185 54.3945ZM15.3388 46.4125L12.8831 46.8811L12.8831 46.8811L15.3388 46.4125ZM46.2155 67.4497L44.8688 69.556L44.8688 69.556L46.2155 67.4497ZM88.6321 66.5977L87.5134 64.362L87.5134 64.362L88.6321 66.5977ZM47.8521 94.1243L49.6833 92.4223L49.6833 92.4223L47.8521 94.1243ZM75.5081 77.613L77.988 77.9294L77.988 77.9294L75.5081 77.613ZM14.4453 5.78136C22.2081 5.20196 27.8749 5.45859 33.1834 7.10988C38.4905 8.76071 43.6612 11.8755 50.2905 17.3877L53.4873 13.5432C46.6069 7.8222 40.8536 4.25947 34.6686 2.33553C28.485 0.412068 22.0918 0.196726 14.0732 0.795232L14.4453 5.78136ZM51.8889 17.9655H81.5185V12.9655H51.8889V17.9655ZM83.0926 17.4077C88.6757 12.8829 93.037 9.88769 98.023 8.0494C102.99 6.2182 108.777 5.46447 117.276 5.7865L117.465 0.79009C108.593 0.453944 102.091 1.22037 96.2933 3.35809C90.5145 5.48871 85.6351 8.9112 79.9444 13.5232L83.0926 17.4077ZM115.094 4.32076C116.046 6.42016 116.749 9.49628 117.158 13.2795C117.563 17.0255 117.665 21.3097 117.502 25.7312C117.174 34.6053 115.788 43.7972 113.802 50.0526L118.568 51.5653C120.731 44.7524 122.16 35.0846 122.498 25.9158C122.668 21.3157 122.566 16.7826 122.129 12.7416C121.696 8.73771 120.917 5.057 119.647 2.25583L115.094 4.32076ZM114.237 52.376L129.052 70.7903L132.948 67.6561L118.133 49.2418L114.237 52.376ZM131.473 66.7684C127.215 65.9475 123.794 66.3486 121.389 66.9943C120.191 67.3159 119.253 67.696 118.594 68.0094C118.264 68.1661 118.003 68.3063 117.814 68.4147C117.72 68.4689 117.643 68.5152 117.584 68.5516C117.555 68.5698 117.53 68.5856 117.51 68.5987C117.5 68.6052 117.491 68.6111 117.483 68.6162C117.479 68.6188 117.475 68.6212 117.472 68.6234C117.47 68.6246 117.469 68.6256 117.467 68.6266C117.466 68.6272 117.465 68.6279 117.465 68.6282C117.464 68.6289 117.463 68.6296 118.852 70.7082C120.241 72.7868 120.24 72.7875 120.239 72.7881C120.239 72.7884 120.238 72.789 120.237 72.7894C120.236 72.7903 120.234 72.7911 120.233 72.7918C120.231 72.7934 120.229 72.7947 120.227 72.7958C120.224 72.7982 120.221 72.7998 120.22 72.8008C120.217 72.8027 120.218 72.802 120.223 72.7988C120.233 72.7924 120.259 72.7763 120.301 72.7522C120.386 72.704 120.533 72.6238 120.74 72.5253C121.155 72.3281 121.809 72.0586 122.685 71.8233C124.429 71.3552 127.081 71.0138 130.527 71.678L131.473 66.7684ZM116.352 70.7082V88.2314H121.352V70.7082H116.352ZM17.6416 88.1153L18.8268 71.7801L13.8399 71.4183L12.6547 87.7535L17.6416 88.1153ZM16.3333 71.5992C16.9177 69.1684 16.9175 69.1684 16.9173 69.1684C16.9172 69.1683 16.9169 69.1683 16.9167 69.1682C16.9162 69.1681 16.9156 69.168 16.9149 69.1678C16.9134 69.1674 16.9113 69.1669 16.9086 69.1663C16.9033 69.165 16.8958 69.1632 16.886 69.1609C16.8664 69.1562 16.8381 69.1495 16.8013 69.1408C16.7278 69.1234 16.6207 69.0982 16.4838 69.0664C16.2101 69.0029 15.8168 68.9128 15.3334 68.8056C14.3679 68.5914 13.0375 68.3074 11.5809 68.0291C8.7815 67.4944 5.14987 66.9053 2.87054 67.0235L3.12946 72.0168C4.70396 71.9352 7.73899 72.3856 10.6428 72.9403C12.0379 73.2068 13.3181 73.4801 14.2505 73.6869C14.716 73.7902 15.0934 73.8766 15.3531 73.9369C15.483 73.967 15.5834 73.9906 15.6506 74.0065C15.6842 74.0145 15.7095 74.0205 15.7261 74.0245C15.7343 74.0264 15.7404 74.0279 15.7443 74.0288C15.7462 74.0293 15.7475 74.0296 15.7483 74.0298C15.7487 74.0299 15.749 74.0299 15.7491 74.03C15.7491 74.03 15.7491 74.03 15.7491 74.03C15.7491 74.03 15.749 74.0299 16.3333 71.5992ZM5.00172 71.0179C5.04692 70.9575 5.20131 70.7511 5.24789 70.6889C5.29667 70.6237 5.44801 70.4214 5.49809 70.3545C5.54255 70.295 5.57984 70.2452 5.62462 70.1854C5.6352 70.1712 5.64579 70.1571 5.65639 70.1429C5.66699 70.1287 5.6776 70.1145 5.68822 70.1003C5.7382 70.0336 5.70201 70.0819 5.75205 70.015C5.8102 69.9373 5.95027 69.7501 6.00954 69.6709C6.04564 69.6227 6.10316 69.5458 6.13952 69.4972C6.15039 69.4827 6.16126 69.4681 6.17214 69.4536C6.18303 69.439 6.19391 69.4245 6.20481 69.4099C6.23843 69.365 6.23661 69.3674 6.27029 69.3224C6.39446 69.1564 6.2774 69.3129 6.40181 69.1466C6.51112 69.0005 6.35848 69.2045 6.46785 69.0584C6.52839 68.9774 6.47345 69.0509 6.53406 68.9699C6.62057 68.8542 6.71318 68.7305 6.80058 68.6137C6.81174 68.5987 6.8229 68.5838 6.83408 68.5689C6.84525 68.554 6.85643 68.539 6.86761 68.5241C6.8788 68.5091 6.88999 68.4942 6.90118 68.4792C6.91238 68.4642 6.92359 68.4493 6.9348 68.4343C6.94601 68.4193 6.95722 68.4043 6.96844 68.3893C6.97967 68.3743 6.9909 68.3593 7.00213 68.3443C7.01336 68.3293 7.0246 68.3142 7.03585 68.2992C7.0471 68.2842 7.05835 68.2691 7.06961 68.2541C7.08087 68.2391 7.09213 68.224 7.1034 68.2089C7.11467 68.1939 7.12595 68.1788 7.13723 68.1637C7.18629 68.0982 7.15587 68.1388 7.20498 68.0732C7.21629 68.0581 7.2276 68.0429 7.23891 68.0278C7.25023 68.0127 7.26155 67.9976 7.27287 67.9824C7.2842 67.9673 7.29553 67.9522 7.30687 67.937C7.3182 67.9218 7.32954 67.9067 7.34089 67.8915C7.42381 67.7807 7.39422 67.8203 7.4773 67.7092C7.48869 67.694 7.50008 67.6788 7.51148 67.6635C7.52287 67.6483 7.53427 67.6331 7.54568 67.6178C7.55709 67.6026 7.5685 67.5873 7.57991 67.5721C7.59133 67.5568 7.60275 67.5415 7.61418 67.5263C7.84135 67.2227 7.93657 67.0954 8.16574 66.7891C8.18282 66.7663 8.2873 66.6266 8.30448 66.6037C8.31606 66.5882 8.32763 66.5727 8.33921 66.5572C8.35079 66.5418 8.36238 66.5263 8.37396 66.5108C8.38555 66.4953 8.39714 66.4798 8.40873 66.4643C8.42032 66.4489 8.43191 66.4334 8.44351 66.4179C8.48609 66.3609 8.47051 66.3818 8.51312 66.3248C8.52472 66.3093 8.53633 66.2938 8.54794 66.2783C8.55955 66.2628 8.57117 66.2472 8.58278 66.2317C8.62124 66.1803 8.61402 66.19 8.6525 66.1385C8.76802 65.9841 8.60674 66.1997 8.72227 66.0453C8.7245 66.0423 8.78983 65.955 8.79208 65.952C8.80372 65.9364 8.81536 65.9209 8.82701 65.9053C8.83865 65.8897 8.8503 65.8742 8.86194 65.8586C8.94902 65.7422 8.91464 65.7882 9.00177 65.6717C9.01079 65.6597 9.06269 65.5903 9.07173 65.5782C9.08339 65.5626 9.09505 65.5471 9.10672 65.5315C9.11838 65.5159 9.13005 65.5003 9.14171 65.4847C9.2285 65.3687 9.19494 65.4136 9.28175 65.2975C9.29497 65.2799 9.33857 65.2216 9.35179 65.2039C9.36346 65.1883 9.37514 65.1727 9.38681 65.1571C9.39849 65.1415 9.41017 65.1259 9.42184 65.1103C9.52994 64.9658 9.45386 65.0675 9.56196 64.923C9.72273 64.7082 9.54131 64.9506 9.70208 64.7358C9.71375 64.7202 9.72543 64.7046 9.7371 64.689C9.74877 64.6733 9.76045 64.6577 9.77212 64.6421C9.78379 64.6265 9.79547 64.6109 9.80714 64.5953C9.81881 64.5797 9.83048 64.5641 9.84215 64.5485C9.87068 64.5104 9.95367 64.3995 9.98216 64.3614C10.0124 64.321 10.0918 64.2148 10.1221 64.1744C10.1337 64.1589 10.1454 64.1433 10.157 64.1277C10.1687 64.1121 10.1803 64.0966 10.192 64.081C10.2061 64.0621 10.2477 64.0065 10.2618 63.9876C10.2645 63.984 10.329 63.8979 10.3317 63.8943C10.3812 63.8281 10.3519 63.8672 10.4015 63.801C10.5334 63.6246 10.5484 63.6047 10.6801 63.4287C10.6852 63.4218 10.814 63.2497 10.819 63.243C10.9118 63.119 10.865 63.1815 10.9576 63.0577C10.9692 63.0422 10.9807 63.0268 10.9923 63.0114C11.0038 62.996 11.0153 62.9806 11.0269 62.9652C11.0304 62.9605 11.0925 62.8775 11.096 62.8728C11.1176 62.8438 11.1434 62.8095 11.165 62.7805C11.1765 62.7652 11.188 62.7498 11.1995 62.7345C11.211 62.7191 11.2225 62.7037 11.2339 62.6884C11.3768 62.4975 11.3664 62.5114 11.5087 62.3212C11.5413 62.2776 11.5445 62.2733 11.5771 62.2297C11.6059 62.1913 11.6167 62.1768 11.6454 62.1385C11.7174 62.0423 11.6417 62.1435 11.7136 62.0473C11.725 62.0322 11.7363 62.017 11.7476 62.0018C11.759 61.9867 11.7703 61.9715 11.7817 61.9564C11.793 61.9412 11.8043 61.9261 11.8156 61.9109C11.827 61.8958 11.8383 61.8807 11.8496 61.8656C11.8747 61.8321 11.8924 61.8084 11.9174 61.775C11.9287 61.7599 11.94 61.7448 11.9512 61.7297C11.9625 61.7146 11.9738 61.6996 11.9851 61.6845C12.0387 61.6129 11.999 61.6659 12.0526 61.5943C12.0638 61.5793 12.0751 61.5642 12.0863 61.5492C12.0975 61.5342 12.1087 61.5192 12.12 61.5042C12.1278 61.4938 12.1794 61.4247 12.1872 61.4144C12.1923 61.4075 12.2492 61.3315 12.2543 61.3247C12.3561 61.1886 12.2194 61.3713 12.3212 61.2353C12.4102 61.1163 12.4991 60.9974 12.5873 60.8796C12.5983 60.8649 12.6093 60.8502 12.6203 60.8355C12.6314 60.8207 12.6424 60.806 12.6534 60.7913C12.6644 60.7766 12.6754 60.7619 12.6863 60.7472C12.6973 60.7326 12.7083 60.7179 12.7193 60.7032C12.7327 60.6853 12.7716 60.6333 12.785 60.6154C12.8066 60.5865 12.829 60.5566 12.8505 60.5278C12.9456 60.4008 12.8209 60.5674 12.9159 60.4404C12.9268 60.4259 12.9376 60.4114 12.9485 60.3969C12.9593 60.3824 12.9702 60.3679 12.981 60.3534C12.9919 60.3389 13.0027 60.3244 13.0135 60.3099C13.0244 60.2955 13.0352 60.281 13.046 60.2665C13.0568 60.2521 13.0676 60.2377 13.0784 60.2232C13.0892 60.2088 13.1 60.1944 13.1108 60.18C13.1215 60.1656 13.1323 60.1512 13.1431 60.1368C13.1538 60.1225 13.1646 60.1081 13.1753 60.0937C13.186 60.0794 13.1968 60.065 13.2075 60.0507C13.2182 60.0364 13.2289 60.0221 13.2396 60.0078C13.2503 59.9934 13.261 59.9791 13.2717 59.9649C13.2824 59.9506 13.2931 59.9363 13.3038 59.9221C13.3144 59.9078 13.3251 59.8935 13.3357 59.8793C13.3464 59.8651 13.357 59.8509 13.3677 59.8366C13.4231 59.7626 13.376 59.8255 13.4313 59.7515C13.4419 59.7374 13.4525 59.7232 13.4631 59.7091C13.4737 59.695 13.4842 59.6808 13.4948 59.6667C13.5246 59.6269 13.5915 59.5375 13.621 59.498C13.6401 59.4725 13.6647 59.4396 13.6838 59.4142C13.7084 59.3813 13.7217 59.3634 13.7463 59.3306C13.7567 59.3167 13.767 59.3029 13.7774 59.289C13.7878 59.2751 13.7982 59.2613 13.8085 59.2474C13.8553 59.1849 13.8238 59.227 13.8705 59.1645C14.0518 58.9223 13.9361 59.0768 14.116 58.8365C14.1324 58.8145 14.3422 58.5342 14.3571 58.5142C14.45 58.3901 14.324 58.5585 14.4167 58.4345C14.4876 58.3398 14.4052 58.4499 14.476 58.3553C14.4859 58.3421 14.4957 58.329 14.5056 58.3158C14.5154 58.3027 14.5252 58.2896 14.535 58.2764C14.5448 58.2633 14.5546 58.2502 14.5644 58.2372C14.5742 58.2241 14.584 58.211 14.5937 58.198C14.6347 58.1432 15.0179 57.631 15.0521 57.5853C15.1784 57.4166 14.9818 57.6793 15.108 57.5107C15.1173 57.4983 15.1265 57.4859 15.1358 57.4735C15.145 57.4612 15.1543 57.4488 15.1635 57.4365C15.2175 57.3642 15.2199 57.3611 15.2735 57.2895C15.4111 57.1056 15.3536 57.1824 15.4892 57.0011C15.697 56.7235 15.7034 56.7149 15.903 56.4481C15.9939 56.3266 15.8622 56.5027 15.953 56.3813C15.9613 56.3702 15.9695 56.3592 15.9778 56.3481C15.9861 56.3371 15.9943 56.3261 16.0025 56.3151C16.1115 56.1694 15.992 56.3291 16.1005 56.1842C16.1086 56.1734 16.1166 56.1626 16.1247 56.1518C16.1328 56.141 16.1408 56.1303 16.1488 56.1196C16.1569 56.1088 16.1649 56.0981 16.1728 56.0875C16.1808 56.0768 16.1888 56.0661 16.1968 56.0555C16.2047 56.0449 16.284 55.9389 16.2914 55.929C16.4077 55.7736 16.3615 55.8354 16.4754 55.6831C16.6412 55.4614 16.489 55.665 16.6524 55.4466C16.8195 55.2232 16.827 55.2132 16.9839 55.0034C17.024 54.9499 17.2548 54.6414 17.2841 54.6023C17.3573 54.5044 17.3514 54.5123 17.4217 54.4183C17.575 54.2135 17.4005 54.4467 17.5508 54.2458C17.5784 54.2089 17.5542 54.2412 17.5817 54.2045C17.5921 54.1906 17.6017 54.1777 17.612 54.164C17.616 54.1587 17.6677 54.0896 17.671 54.0852C17.6758 54.0788 17.6806 54.0724 17.6853 54.066C17.6901 54.0596 17.6949 54.0533 17.6996 54.047C17.7338 54.0012 17.6936 54.055 17.7276 54.0095C17.7323 54.0033 17.7369 53.9971 17.7414 53.991C17.746 53.9849 17.7506 53.9788 17.7551 53.9727C17.7593 53.9672 17.778 53.9421 17.782 53.9368C17.8492 53.847 17.8196 53.8865 17.8837 53.8009C17.89 53.7925 17.9015 53.7771 17.9076 53.769C17.9673 53.6892 17.8714 53.8173 17.9309 53.7378C18.001 53.6441 17.9064 53.7706 17.9757 53.6779C18.0357 53.5978 18.0012 53.6438 18.0579 53.5681C18.1438 53.4533 18.0474 53.5821 18.1299 53.4718C18.1327 53.4681 18.1354 53.4644 18.1382 53.4608C18.1409 53.4571 18.1436 53.4535 18.1463 53.4499C18.149 53.4464 18.1516 53.4428 18.1542 53.4393C18.1568 53.4358 18.1594 53.4323 18.162 53.4289C18.2145 53.3588 18.14 53.4584 18.1915 53.3895C18.2889 53.2594 18.1488 53.4466 18.2425 53.3213C18.2516 53.3091 18.2447 53.3184 18.2536 53.3065C18.2718 53.2821 18.2459 53.3168 18.2639 53.2927C18.2953 53.2508 18.2522 53.3083 18.2826 53.2677C18.2987 53.2462 18.2751 53.2778 18.2909 53.2566C18.3084 53.2332 18.2812 53.2696 18.2985 53.2465C18.3079 53.234 18.3032 53.2402 18.3116 53.229C18.3201 53.2176 18.3245 53.2118 18.3291 53.2055C18.3369 53.1951 18.3242 53.2122 18.3317 53.2021C18.3321 53.2016 18.3324 53.2011 18.3327 53.2007C18.333 53.2003 18.3333 53.2 18.3336 53.1996C18.3338 53.1993 18.334 53.199 18.3342 53.1988C18.3344 53.1985 18.3346 53.1983 18.3347 53.1981C18.3348 53.198 18.3349 53.1978 18.335 53.1978C18.335 53.1977 18.335 53.1976 16.3333 51.6999C14.3316 50.2022 14.3316 50.2023 14.3315 50.2023C14.3315 50.2024 14.3314 50.2026 14.3312 50.2027C14.3302 50.204 14.3314 50.2025 14.3301 50.2042C14.3289 50.2059 14.3298 50.2047 14.3283 50.2067C14.3281 50.207 14.3262 50.2095 14.3257 50.2101C14.3225 50.2143 14.3152 50.2242 14.3081 50.2336C14.3048 50.2381 14.3056 50.237 14.302 50.2418C14.3009 50.2433 14.2998 50.2448 14.2986 50.2463C14.2975 50.2479 14.2963 50.2494 14.2951 50.2511C14.2894 50.2586 14.2934 50.2533 14.2875 50.2612C14.2862 50.263 14.2848 50.2648 14.2834 50.2666C14.282 50.2685 14.2806 50.2704 14.2792 50.2723C14.2593 50.2989 14.2813 50.2694 14.2605 50.2973C14.2588 50.2995 14.2571 50.3018 14.2554 50.3041C14.2537 50.3064 14.2519 50.3087 14.2501 50.3111C14.2495 50.312 14.24 50.3247 14.2391 50.3259C14.1934 50.387 14.2374 50.3282 14.1881 50.3941C14.1842 50.3993 14.1778 50.4078 14.1737 50.4133C14.1712 50.4166 14.1687 50.4199 14.1662 50.4233C14.1637 50.4267 14.1612 50.4301 14.1586 50.4335C14.1481 50.4474 14.1535 50.4403 14.1428 50.4545C14.1402 50.4581 14.1375 50.4617 14.1347 50.4654C14.132 50.469 14.1292 50.4727 14.1265 50.4764C14.1137 50.4935 14.0706 50.5511 14.0544 50.5727C14.0142 50.6265 14.0557 50.571 14.0146 50.6259C13.927 50.7431 14.0607 50.5643 13.9723 50.6825C13.9248 50.746 13.931 50.7377 13.8802 50.8055C13.8359 50.8648 13.8261 50.8779 13.7786 50.9414C13.721 51.0183 13.8094 50.9001 13.7517 50.9773C13.741 50.9916 13.7351 50.9995 13.7242 51.014C13.624 51.1479 13.7684 50.9549 13.6675 51.0898C13.6423 51.1235 13.6637 51.0949 13.6383 51.1288C13.6197 51.1538 13.6274 51.1434 13.6086 51.1686C13.5025 51.3104 13.6542 51.1077 13.5474 51.2504C13.4995 51.3144 13.5325 51.2702 13.4839 51.3352C13.4636 51.3623 13.4393 51.3948 13.4183 51.4229C13.3828 51.4703 13.4204 51.4201 13.3847 51.4678C13.343 51.5235 13.3924 51.4575 13.3506 51.5134C13.2792 51.6088 13.3527 51.5105 13.2807 51.6068C13.2596 51.6349 13.2304 51.674 13.2087 51.703C13.1619 51.7656 13.1821 51.7385 13.1346 51.802C13.1284 51.8104 13.1221 51.8187 13.1158 51.8272C13.1095 51.8356 13.1032 51.844 13.0969 51.8525C13.0905 51.861 13.0842 51.8695 13.0778 51.878C13.0714 51.8865 13.065 51.8951 13.0586 51.9037C13.0522 51.9122 13.0457 51.9209 13.0393 51.9295C13.0328 51.9381 13.0263 51.9468 13.0198 51.9555C13.0089 51.9701 12.9916 51.9932 12.9805 52.008C12.8937 52.1241 12.988 51.998 12.9005 52.1149C12.89 52.129 12.8297 52.2096 12.8185 52.2245C12.7442 52.3238 12.8096 52.2364 12.7347 52.3366C12.7096 52.3701 12.6746 52.4168 12.6489 52.4512C12.4872 52.6673 12.6361 52.4683 12.472 52.6876C12.4461 52.7222 12.4073 52.7741 12.3808 52.8095C12.2942 52.9253 12.3752 52.8171 12.2879 52.9336C12.278 52.9469 12.2038 53.046 12.1933 53.0601C12.1854 53.0707 12.1774 53.0814 12.1694 53.092C12.1614 53.1027 12.1534 53.1134 12.1454 53.1241C12.1374 53.1349 12.1293 53.1456 12.1213 53.1564C12.1132 53.1672 12.1051 53.1779 12.097 53.1888C12.089 53.1996 12.0808 53.2104 12.0727 53.2213C12.0646 53.2321 12.0564 53.243 12.0483 53.2539C12.0401 53.2648 12.0319 53.2758 12.0237 53.2867C12.0156 53.2977 12.0073 53.3087 11.9991 53.3197C11.9909 53.3307 11.9826 53.3417 11.9744 53.3527C11.9661 53.3638 11.9578 53.3748 11.9495 53.3859C11.9412 53.397 11.9329 53.4081 11.9246 53.4192C11.9163 53.4304 11.9079 53.4415 11.8996 53.4527C11.7025 53.7161 11.691 53.7314 11.4858 54.0057C11.4588 54.0418 11.4595 54.0408 11.4324 54.0771C11.4235 54.089 11.4145 54.101 11.4056 54.1129C11.3966 54.1249 11.3876 54.1369 11.3786 54.1489C11.3696 54.1609 11.3606 54.173 11.3516 54.185C11.3426 54.1971 11.3336 54.2092 11.3245 54.2213C11.3155 54.2334 11.3064 54.2455 11.2973 54.2576C11.2882 54.2697 11.2792 54.2819 11.27 54.2941C11.2609 54.3062 11.2518 54.3184 11.2427 54.3306C11.2335 54.3429 11.2244 54.3551 11.2152 54.3673C11.2061 54.3796 11.1969 54.3919 11.1877 54.4041C11.1785 54.4164 11.1693 54.4287 11.1601 54.4411C11.1508 54.4534 11.1416 54.4657 11.1323 54.4781C11.1231 54.4905 11.1138 54.5028 11.1046 54.5152C11.0953 54.5277 11.086 54.5401 11.0767 54.5525C11.0674 54.565 11.058 54.5774 11.0487 54.5899C11.0394 54.6024 11.03 54.6149 11.0207 54.6274C11.0113 54.6399 11.0019 54.6524 10.9925 54.665C10.9831 54.6775 10.9737 54.6901 10.9643 54.7027C10.9549 54.7153 10.9455 54.7279 10.936 54.7405C10.822 54.8929 10.9365 54.7399 10.822 54.8928C10.8125 54.9056 10.8029 54.9184 10.7933 54.9312C10.7838 54.944 10.7742 54.9568 10.7646 54.9696C10.755 54.9825 10.7453 54.9953 10.7357 55.0082C10.7261 55.0211 10.7164 55.034 10.7068 55.0469C10.6971 55.0598 10.6875 55.0727 10.6778 55.0856C10.6681 55.0986 10.6584 55.1115 10.6487 55.1245C10.6062 55.1813 10.6329 55.1457 10.5903 55.2026C10.5805 55.2156 10.5708 55.2287 10.561 55.2417C10.5512 55.2548 10.5414 55.2679 10.5316 55.281C10.5218 55.2941 10.512 55.3073 10.5021 55.3204C10.4923 55.3335 10.4824 55.3467 10.4726 55.3599C10.4599 55.3768 10.426 55.4221 10.4133 55.4391C10.4034 55.4524 10.3935 55.4656 10.3835 55.4789C10.3736 55.4922 10.3637 55.5055 10.3537 55.5188C10.1973 55.7278 10.3905 55.4696 10.2337 55.6792C10.1963 55.7291 10.1503 55.7906 10.1126 55.8411C10.1063 55.8494 10.0579 55.9141 10.0516 55.9225C10.0414 55.9362 10.0312 55.9498 10.021 55.9634C10.0108 55.9771 10.0006 55.9907 9.99036 56.0044C9.9553 56.0512 9.96401 56.0396 9.92886 56.0866C9.91859 56.1003 9.90831 56.1141 9.89801 56.1278C9.88772 56.1416 9.87742 56.1553 9.8671 56.1691C9.75116 56.3241 9.85911 56.1798 9.74283 56.3352C9.73243 56.3491 9.72203 56.363 9.71161 56.3769C9.70119 56.3909 9.69076 56.4048 9.68032 56.4188C9.65765 56.4491 9.64033 56.4722 9.61757 56.5026C9.54803 56.5956 9.6242 56.4938 9.55458 56.5868C9.54407 56.6009 9.53354 56.6149 9.523 56.629C9.51246 56.6431 9.50192 56.6572 9.49136 56.6713C9.44839 56.7287 9.47095 56.6986 9.42791 56.7561C9.32295 56.8964 9.46926 56.7009 9.36423 56.8412C9.35614 56.852 9.11656 57.1722 9.10732 57.1846C8.91366 57.4434 9.04183 57.2721 8.84711 57.5324C8.82122 57.567 8.80752 57.5853 8.78157 57.62C8.69977 57.7293 8.79769 57.5984 8.71584 57.7078C8.70889 57.7171 8.59103 57.8746 8.58384 57.8842C8.48075 58.022 8.42174 58.1009 8.31777 58.2398C8.24434 58.338 8.12338 58.4996 8.04914 58.5989C7.93373 58.7531 8.02956 58.625 7.91396 58.7795C7.82615 58.8969 7.86621 58.8434 7.77823 58.9609C7.76689 58.9761 7.75555 58.9912 7.74421 59.0064C7.73287 59.0216 7.72152 59.0367 7.71017 59.0519C7.69881 59.0671 7.68745 59.0823 7.67609 59.0975C7.66473 59.1126 7.65336 59.1278 7.64198 59.143C7.57608 59.2311 7.63962 59.1462 7.57368 59.2343C7.55801 59.2553 7.52097 59.3048 7.50526 59.3258C7.47251 59.3695 7.26382 59.6485 7.23051 59.693C7.07955 59.8947 7.24362 59.6755 7.09254 59.8774C7.03486 59.9545 7.08112 59.8926 7.02342 59.9698C7.01189 59.9852 7.00036 60.0006 6.98883 60.016C6.9773 60.0314 6.96576 60.0468 6.95422 60.0622C6.87148 60.1728 6.96769 60.0442 6.88493 60.1548C6.87338 60.1703 6.86182 60.1857 6.85026 60.2012C6.8387 60.2166 6.82714 60.2321 6.81557 60.2475C6.80401 60.263 6.79244 60.2785 6.78087 60.2939C6.76929 60.3094 6.75772 60.3249 6.74614 60.3403C6.73061 60.3611 6.6922 60.4124 6.67664 60.4332C6.6045 60.5296 6.60966 60.5227 6.53745 60.6193C6.52584 60.6348 6.51423 60.6503 6.50261 60.6658C6.491 60.6813 6.47938 60.6969 6.46776 60.7124C6.44718 60.7399 6.41863 60.7781 6.39803 60.8056C6.3864 60.8211 6.37477 60.8367 6.36314 60.8522C6.35151 60.8678 6.33988 60.8833 6.32824 60.8989C6.31661 60.9144 6.30497 60.93 6.29334 60.9455C6.2817 60.9611 6.27006 60.9766 6.25842 60.9922C6.14366 61.1456 6.30332 60.9322 6.18855 61.0856C6.1769 61.1011 6.16525 61.1167 6.1536 61.1323C6.14195 61.1479 6.13029 61.1634 6.11864 61.179C6.10698 61.1946 6.09533 61.2102 6.08367 61.2257C6.07202 61.2413 6.06036 61.2569 6.0487 61.2725C5.98876 61.3526 6.03868 61.2859 5.97873 61.366C5.94049 61.4171 5.87699 61.502 5.83872 61.5531C5.76178 61.656 5.7756 61.6375 5.69864 61.7403C5.69076 61.7509 5.56642 61.9171 5.55853 61.9276C5.52735 61.9693 5.44959 62.0732 5.41841 62.1149C5.40673 62.1305 5.39506 62.1461 5.38338 62.1617C5.37171 62.1773 5.36003 62.1929 5.34836 62.2085C5.21417 62.3878 5.4125 62.1228 5.27832 62.3021C4.83914 62.8891 4.59755 63.212 4.16231 63.7937C3.6948 64.4185 3.52436 64.6463 3.06618 65.2587C3.05492 65.2737 3.04367 65.2888 3.03242 65.3038C3.02117 65.3188 3.00993 65.3339 2.9987 65.3489C2.98722 65.3642 2.94279 65.4236 2.93136 65.4389C2.92015 65.4538 2.90895 65.4688 2.89775 65.4838C2.88656 65.4987 2.87536 65.5137 2.86418 65.5287C2.85827 65.5366 2.803 65.6104 2.79715 65.6182C2.78599 65.6332 2.77484 65.6481 2.76369 65.663C2.75254 65.6779 2.7414 65.6927 2.73027 65.7076C2.71914 65.7225 2.70801 65.7374 2.69689 65.7522C2.68577 65.7671 2.67466 65.7819 2.66356 65.7968C2.65332 65.8105 2.54064 65.9611 2.53062 65.9745C2.51426 65.9963 2.48072 66.0412 2.46441 66.0629C2.45211 66.0794 2.41063 66.1348 2.39838 66.1512C2.37765 66.1789 2.3532 66.2116 2.33253 66.2392C2.29422 66.2904 2.30511 66.2759 2.26686 66.327C2.11323 66.5323 2.15869 66.4715 2.00611 66.6755C1.97993 66.7105 1.77367 66.9861 1.74862 67.0196C1.64934 67.1523 1.59273 67.228 1.49466 67.359C1.37154 67.5236 1.11604 67.8651 0.998284 68.0225L5.00172 71.0179ZM69.7963 131V108.131H64.7963V131H69.7963ZM67.2963 128.5C66.7765 128.5 65.9094 128.315 64.657 127.797C63.4431 127.294 62.038 126.551 60.4971 125.615C57.4165 123.743 53.981 121.217 50.7384 118.646C47.5057 116.083 44.5131 113.515 42.3256 111.584C41.233 110.619 40.3439 109.817 39.7293 109.256C39.422 108.976 39.1835 108.756 39.0227 108.607C38.9422 108.533 38.8812 108.476 38.8408 108.439C38.8205 108.42 38.8054 108.406 38.7956 108.397C38.7907 108.392 38.7871 108.389 38.7848 108.387C38.7837 108.386 38.7829 108.385 38.7824 108.384C38.7822 108.384 38.7821 108.384 38.782 108.384C38.782 108.384 38.782 108.384 37.0741 110.21C35.3661 112.035 35.3663 112.036 35.3667 112.036C35.3669 112.036 35.3673 112.036 35.3678 112.037C35.3687 112.038 35.3699 112.039 35.3714 112.04C35.3746 112.043 35.379 112.047 35.3848 112.053C35.3964 112.064 35.4133 112.079 35.4354 112.1C35.4795 112.141 35.5442 112.201 35.6285 112.279C35.7971 112.435 36.0438 112.662 36.3598 112.95C36.9917 113.526 37.9013 114.348 39.017 115.333C41.2461 117.3 44.3091 119.929 47.632 122.564C50.9449 125.191 54.565 127.861 57.9011 129.888C59.5685 130.901 61.212 131.782 62.7446 132.417C64.2388 133.035 65.8161 133.5 67.2963 133.5V128.5ZM37.0741 110.21C38.5137 108.166 38.5139 108.166 38.5139 108.166C38.5138 108.166 38.5138 108.166 38.5136 108.166C38.5132 108.165 38.5125 108.165 38.5114 108.164C38.5093 108.163 38.5059 108.16 38.5012 108.157C38.4918 108.15 38.4772 108.14 38.4577 108.126C38.4185 108.098 38.3594 108.056 38.2816 108.001C38.1259 107.889 37.8957 107.724 37.6015 107.51C37.013 107.083 36.1695 106.462 35.1562 105.696C33.1264 104.161 30.4297 102.051 27.7414 99.7384C25.0399 97.4147 22.4097 94.94 20.4757 92.6739C19.5077 91.5397 18.7641 90.5154 18.2742 89.636C17.7625 88.7176 17.6481 88.1705 17.6481 87.9344H12.6481C12.6481 89.4061 13.219 90.8359 13.9064 92.0696C14.6155 93.3424 15.5849 94.6454 16.6725 95.9197C18.8495 98.4706 21.7009 101.138 24.4808 103.529C27.274 105.932 30.0588 108.11 32.1401 109.684C33.1823 110.472 34.0518 111.112 34.6624 111.555C34.9677 111.777 35.2085 111.95 35.3741 112.068C35.4569 112.128 35.5208 112.173 35.5647 112.204C35.5866 112.22 35.6035 112.232 35.6152 112.24C35.621 112.244 35.6255 112.247 35.6287 112.25C35.6304 112.251 35.6316 112.252 35.6326 112.252C35.6331 112.253 35.6335 112.253 35.6337 112.253C35.6341 112.253 35.6344 112.254 37.0741 110.21ZM38.8527 81.5145C34.1164 76.7195 28.6312 73.6446 24.3775 71.7724C22.2422 70.8326 20.3943 70.1858 19.0708 69.7716C18.4084 69.5643 17.8755 69.4147 17.5016 69.3154C17.3146 69.2657 17.1671 69.2286 17.0629 69.2031C17.0108 69.1903 16.9695 69.1805 16.9394 69.1734C16.9244 69.1699 16.9121 69.167 16.9028 69.1649C16.8981 69.1638 16.8941 69.1629 16.8909 69.1622C16.8893 69.1618 16.8878 69.1615 16.8866 69.1612C16.886 69.161 16.8851 69.1609 16.8848 69.1608C16.8841 69.1606 16.8834 69.1605 16.3333 71.5992C15.7833 74.0379 15.7827 74.0378 15.7821 74.0377C15.782 74.0376 15.7814 74.0375 15.7812 74.0375C15.7806 74.0373 15.7803 74.0373 15.7801 74.0372C15.7797 74.0371 15.7801 74.0372 15.7811 74.0375C15.7832 74.0379 15.7882 74.0391 15.7958 74.0409C15.8111 74.0445 15.8375 74.0507 15.8743 74.0597C15.9481 74.0778 16.0639 74.1069 16.2183 74.1479C16.5272 74.2299 16.9898 74.3594 17.5774 74.5434C18.7538 74.9115 20.4244 75.4954 22.3633 76.3488C26.2577 78.0629 31.1428 80.8241 35.2954 85.0282L38.8527 81.5145ZM39.5741 110.21V83.2714H34.5741V110.21H39.5741ZM116.489 87.4154C116.498 87.3874 116.458 87.5004 116.272 87.798C116.102 88.0705 115.861 88.417 115.545 88.8371C114.913 89.6768 114.052 90.7164 113.021 91.8976C110.962 94.2556 108.32 97.0714 105.695 99.7925C103.076 102.509 100.494 105.11 98.5658 107.034C97.6022 107.995 96.8028 108.786 96.2447 109.336C95.9657 109.611 95.7471 109.826 95.5985 109.972C95.5242 110.045 95.4675 110.1 95.4294 110.138C95.4104 110.156 95.396 110.17 95.3865 110.18C95.3817 110.184 95.3782 110.188 95.3759 110.19C95.3747 110.191 95.3738 110.192 95.3733 110.193C95.373 110.193 95.3728 110.193 95.3727 110.193C95.3726 110.193 95.3726 110.193 97.1199 111.981C98.8673 113.769 98.8674 113.769 98.8676 113.769C98.8678 113.769 98.8681 113.768 98.8684 113.768C98.8691 113.767 98.8701 113.766 98.8714 113.765C98.874 113.763 98.8779 113.759 98.883 113.754C98.8931 113.744 98.908 113.729 98.9277 113.71C98.967 113.672 99.0251 113.615 99.1007 113.541C99.2519 113.392 99.4733 113.175 99.7553 112.896C100.319 112.34 101.126 111.543 102.097 110.573C104.039 108.636 106.645 106.011 109.294 103.263C111.939 100.521 114.648 97.6362 116.787 95.1857C117.855 93.9627 118.804 92.821 119.54 91.8436C120.208 90.9559 120.906 89.9411 121.215 89.0475L116.489 87.4154ZM95.4633 110.109C89.8307 115.093 84.4821 119.749 79.5697 123.164C74.567 126.642 70.4703 128.5 67.2963 128.5V133.5C72.1223 133.5 77.3224 130.816 82.424 127.269C87.6159 123.66 93.1791 118.806 98.7765 113.854L95.4633 110.109ZM67.2963 110.631C68.9949 110.631 70.7181 110.084 72.3309 109.324C73.9667 108.552 75.6493 107.482 77.3095 106.259C80.6288 103.813 84.0644 100.597 87.1377 97.4468C90.2221 94.2851 92.9975 91.1315 94.9985 88.773C96.0003 87.5923 96.811 86.6073 97.3727 85.9156C97.6536 85.5696 97.8725 85.2969 98.022 85.1094C98.0967 85.0157 98.1542 84.9432 98.1934 84.8937C98.213 84.8689 98.2281 84.8498 98.2385 84.8366C98.2437 84.83 98.2477 84.8249 98.2505 84.8212C98.252 84.8194 98.2531 84.818 98.2539 84.8169C98.2543 84.8164 98.2547 84.8159 98.255 84.8156C98.2553 84.8152 98.2555 84.8149 96.2889 83.2714C94.3223 81.7279 94.3224 81.7277 94.3225 81.7277C94.3224 81.7278 94.3223 81.7279 94.3221 81.7281C94.3218 81.7285 94.3211 81.7294 94.3202 81.7306C94.3183 81.733 94.3152 81.7368 94.311 81.7422C94.3026 81.7529 94.2895 81.7695 94.2719 81.7917C94.2367 81.8362 94.1835 81.9034 94.113 81.9917C93.9721 82.1684 93.7625 82.4297 93.4914 82.7635C92.9491 83.4313 92.1614 84.3884 91.1858 85.5383C89.2322 87.8409 86.5372 90.9021 83.5587 93.9553C80.569 97.0198 77.349 100.019 74.3433 102.234C72.841 103.341 71.4437 104.214 70.1977 104.801C68.9287 105.4 67.9681 105.631 67.2963 105.631V110.631ZM97.8047 85.2594C103.743 80.7315 109.234 77.6758 113.226 75.7569C115.221 74.798 116.838 74.1246 117.946 73.6944C118.5 73.4793 118.926 73.3251 119.208 73.2266C119.349 73.1773 119.453 73.142 119.52 73.1199C119.553 73.1088 119.577 73.1011 119.591 73.0966C119.598 73.0943 119.602 73.0929 119.604 73.0922C119.605 73.0919 119.606 73.0918 119.606 73.0918C119.606 73.0919 119.605 73.092 119.605 73.0921C119.605 73.0922 119.604 73.0923 119.604 73.0923C119.604 73.0925 119.603 73.0927 118.852 70.7082C118.101 68.3237 118.1 68.3239 118.099 68.3241C118.099 68.3242 118.098 68.3244 118.098 68.3246C118.097 68.3249 118.096 68.3253 118.094 68.3257C118.092 68.3266 118.088 68.3277 118.084 68.329C118.076 68.3315 118.066 68.3349 118.053 68.3391C118.026 68.3475 117.991 68.3593 117.945 68.3744C117.854 68.4047 117.724 68.4486 117.557 68.5069C117.224 68.6233 116.745 68.797 116.136 69.0335C114.918 69.5063 113.181 70.2307 111.06 71.2505C106.818 73.2893 101.027 76.5151 94.7731 81.2833L97.8047 85.2594ZM97.1199 111.981C99.6189 111.909 99.6189 111.909 99.6189 111.909C99.6189 111.909 99.6189 111.908 99.6188 111.908C99.618 111.88 99.6196 111.935 99.6188 111.906C99.6187 111.904 99.6187 111.904 99.6187 111.902C99.6184 111.892 99.6188 111.907 99.6185 111.896C99.6178 111.872 99.6183 111.891 99.6174 111.858C99.6155 111.792 99.616 111.808 99.6131 111.71C99.6089 111.565 99.6041 111.399 99.5965 111.135C99.5821 110.639 99.5608 109.903 99.5347 109C99.4821 107.184 99.4087 104.647 99.3251 101.758C99.1579 95.9813 98.9502 88.8062 98.7879 83.199L93.79 83.3437C93.9523 88.9503 94.16 96.1265 94.3272 101.903C94.4107 104.79 94.4842 107.33 94.5368 109.144C94.5624 110.03 94.5847 110.801 94.5986 111.28C94.6054 111.516 94.6118 111.737 94.6152 111.854C94.6193 111.996 94.6163 111.894 94.6195 112.003C94.6211 112.058 94.6192 111.994 94.6206 112.041C94.6226 112.109 94.619 111.985 94.6209 112.05C94.6209 112.051 94.6209 112.051 94.6209 112.052C94.6209 112.052 94.6209 112.053 94.6209 112.053C94.621 112.053 94.621 112.053 94.621 112.053C94.621 112.054 94.621 112.054 97.1199 111.981ZM117.97 49.0583L97.2865 27.971L93.7169 31.4722L114.4 52.5595L117.97 49.0583ZM97.2865 27.971L83.3033 13.7149L79.7337 17.2161L93.7169 31.4722L97.2865 27.971ZM97.4279 31.3152L119.297 4.88191L115.444 1.69469L93.5755 28.128L97.4279 31.3152ZM50.1045 13.7145L36.1154 27.9707L39.6842 31.4726L53.6733 17.2164L50.1045 13.7145ZM36.1154 27.9707L14.5489 49.949L18.1177 53.4509L39.6842 31.4726L36.1154 27.9707ZM39.7633 28.0551L16.1227 1.62171L12.3958 4.95488L36.0364 31.3882L39.7633 28.0551ZM42.5252 55.6786C46.8082 55.9852 49.4541 58.5421 51.345 62.7905C53.293 67.1671 54.1953 72.8498 55.0464 78.5053L59.9907 77.7613C59.1635 72.2643 58.188 65.8687 55.913 60.7573C53.5808 55.5176 49.6584 51.1765 42.8822 50.6913L42.5252 55.6786ZM4.59183 71.4479C15.4542 62.4781 22.5613 58.0714 33.3037 56.4295L32.5482 51.4869C20.466 53.3336 12.5068 58.4276 1.40817 67.5925L4.59183 71.4479ZM33.3037 56.4295C36.1292 55.9976 39.2335 55.754 42.7531 55.6845L42.6543 50.6854C38.9649 50.7583 35.6356 51.015 32.5482 51.4869L33.3037 56.4295ZM89.6719 55.6809C93.3575 55.892 96.6904 56.2945 99.7336 56.8534L100.637 51.9357C97.3743 51.3365 93.8344 50.9111 89.9578 50.689L89.6719 55.6809ZM99.7336 56.8534C113.289 59.3428 121.343 64.9707 129.479 71.2073L132.521 67.239C124.182 60.8469 115.365 54.6405 100.637 51.9357L99.7336 56.8534ZM68.5126 101.405C72.7697 99.034 74.8093 94.4462 76.0131 89.7422L71.1691 88.5027C70.0475 92.8858 68.4602 95.7109 66.08 97.0364L68.5126 101.405ZM76.0131 89.7422C76.9138 86.2223 77.4335 82.2691 77.9215 78.4502L72.9619 77.8164C72.4671 81.6877 71.9804 85.3322 71.1691 88.5027L76.0131 89.7422ZM57.2255 89.8284C58.6704 94.7366 61.1255 99.0219 66.211 101.473L68.3816 96.9684C65.0501 95.3629 63.2488 92.5838 62.022 88.4164L57.2255 89.8284ZM73.5911 86.6224H59.6238V91.6224H73.5911V86.6224ZM5.00172 71.0179L18.335 53.1976L14.3316 50.2022L0.998284 68.0225L5.00172 71.0179ZM11.7996 2.84102C8.22806 22.4818 10.2931 33.3098 12.8831 46.8811L17.7945 45.9438C15.243 32.5743 13.3127 22.4673 16.7189 3.73557L11.7996 2.84102ZM12.8831 46.8811C13.209 48.5887 13.5421 50.334 13.8741 52.1497L18.7925 51.2502C18.4565 49.4127 18.1199 47.6489 17.7945 45.9438L12.8831 46.8811ZM30.6008 54.8766C33.5778 62.4133 39.7279 66.2689 44.8688 69.556L47.5623 65.3435C42.2585 61.9522 37.5527 58.8664 35.2511 53.0397L30.6008 54.8766ZM44.8688 69.556C49.6155 72.5911 53.3767 75.0764 55.2439 79.1706L59.7931 77.0959C57.21 71.4319 52.0543 68.2157 47.5623 65.3435L44.8688 69.556ZM55.0463 78.5052L55.0891 78.7893L60.0334 78.0455L59.9907 77.7614L55.0463 78.5052ZM55.0891 78.7893C55.6748 82.6831 56.2427 86.4896 57.2255 89.8284L62.022 88.4164C61.1553 85.4722 60.6331 82.0318 60.0334 78.0455L55.0891 78.7893ZM77.7175 79.168C80.2139 73.6776 84.7148 71.3531 89.7507 68.8335L87.5134 64.362C82.5961 66.8223 76.4799 69.8099 73.1659 77.0985L77.7175 79.168ZM89.7507 68.8335C95.045 66.1846 101.352 63.1667 102.656 54.7785L97.7148 54.0106C96.8536 59.5512 93.0854 61.5741 87.5134 64.362L89.7507 68.8335ZM67.2963 105.631C64.936 105.631 62.38 104.435 59.3538 102.001C56.3402 99.5766 53.2168 96.224 49.6833 92.4223L46.0209 95.8262C49.4801 99.548 52.8658 103.199 56.2197 105.897C59.5609 108.585 63.2306 110.631 67.2963 110.631V105.631ZM49.6833 92.4223C46.3707 88.8582 42.7466 84.9562 38.7317 81.4L35.4164 85.1428C39.2203 88.5121 42.6836 92.2355 46.021 95.8262L49.6833 92.4223ZM55.0464 78.5053C55.0606 78.6001 55.0748 78.6947 55.0891 78.7893L60.0334 78.0455C60.0192 77.9511 60.005 77.8562 59.9907 77.7613L55.0464 78.5053ZM89.6677 50.6893C86.3796 50.8832 83.6634 51.923 81.4713 53.6781C79.3085 55.4096 77.8 57.7208 76.703 60.2447C74.5515 65.1944 73.764 71.5303 73.0282 77.2966L77.988 77.9294C78.7517 71.9437 79.4802 66.398 81.2885 62.2379C82.1714 60.2069 83.2537 58.6561 84.5962 57.5813C85.9093 56.53 87.6127 55.8191 89.962 55.6806L89.6677 50.6893ZM73.0282 77.2966C73.0061 77.4702 72.984 77.6433 72.9619 77.8163L77.9215 78.4502C77.9437 78.2766 77.9659 78.1029 77.988 77.9294L73.0282 77.2966ZM77.9216 78.4499L77.988 77.9296L73.0283 77.2964L72.9618 77.8167L77.9216 78.4499ZM99.6189 111.909L98.7879 83.199L93.79 83.3437L94.621 112.054L99.6189 111.909Z" fill="#222C41"/>
<path d="M99.2962 52.8491C96.2451 52.2933 87.4444 51.4116 85.3703 52.5996C83.2962 53.7877 78.168 55.2727 76.0486 66.2618C73.9293 77.251 73.8147 83.7851 72.3332 87.6461H60.7777C59.8991 84.6854 59.3393 80.9926 58.7764 77.2798L58.745 77.0723L58.7036 76.7995C81.2221 61.8068 66.9999 46.0656 94.8518 31.2154C109.667 43.0955 123 61.8068 123 61.8068C111.741 54.3817 103.444 53.6048 99.2962 52.8491Z" fill="#29D0C8"/>
</svg>
