<svg width="222" height="221" viewBox="0 0 222 221" fill="none" xmlns="http://www.w3.org/2000/svg">
<path d="M135.5 23.9853H85.5L61.8935 47.9853L25.5 84.9853L3 114.985C21.5296 99.7207 34.2418 91.7236 53.5 88.7871C58.489 88.0263 63.9174 87.6052 70 87.4853C88.6625 88.8184 92.1679 110.71 95 129.485L95.0721 129.964C96.0723 136.597 96.992 142.697 98.5526 147.985H122.122C123.567 142.354 124.416 135.958 125.245 129.485L125.357 128.609C127.888 108.825 130.474 88.6045 149.5 87.4853C155.881 87.8499 161.68 88.5469 167 89.5216C190.864 93.8938 205.099 103.855 219 114.485L194 83.4853L159.097 47.9853L135.5 23.9853Z" fill="#40E9DB"/>
<path d="M196 3.48534C166.687 2.37732 154.525 8.60365 135.5 23.9853L159.097 47.9853L196 3.48534Z" fill="#A4FFFC"/>
<path d="M194 83.4853C201 61.4853 203.5 19.9853 196 3.48534L159.097 47.9853L194 83.4853Z" fill="#BBBBBB"/>
<path d="M194 83.4853C201 61.4853 203.5 19.9853 196 3.48534L159.097 47.9853L194 83.4853Z" fill="#29D0C8"/>
<path d="M167 89.5216C161.68 88.5469 155.881 87.8499 149.5 87.4853C130.474 88.6045 127.888 108.825 125.357 128.609L125.245 129.485C130.148 118.729 139.106 114.257 147.504 110.065C156.673 105.489 165.173 101.246 167 89.5216Z" fill="#32F4E2"/>
<path d="M95 129.485C92.1679 110.71 88.6625 88.8184 70 87.4853C63.9174 87.6052 58.489 88.0263 53.5 88.7871C57.9538 100.036 67.1135 105.878 75.9262 111.5C83.7214 116.472 91.245 121.271 95 129.485Z" fill="#BBBBBB"/>
<path d="M95 129.485C92.1679 110.71 88.6625 88.8184 70 87.4853C63.9174 87.6052 58.489 88.0263 53.5 88.7871C57.9538 100.036 67.1135 105.878 75.9262 111.5C83.7214 116.472 91.245 121.271 95 129.485Z" fill="#32F4E2"/>
<path d="M85.5 23.9853C62.7025 5.07447 48.6311 1.50236 22 3.48534L61.8935 47.9853L85.5 23.9853Z" fill="#BBBBBB"/>
<path d="M85.5 23.9853C62.7025 5.07447 48.6311 1.50236 22 3.48534L61.8935 47.9853L85.5 23.9853Z" fill="#A4FFFC"/>
<path d="M25.5 84.9853L61.8935 47.9853L22 3.48534C16.1125 35.785 19.4836 53.4069 23.8217 76.084C24.3712 78.9566 24.9363 81.9103 25.5 84.9853Z" fill="#BBBBBB"/>
<path d="M25.5 84.9853L61.8935 47.9853L22 3.48534C16.1125 35.785 19.4836 53.4069 23.8217 76.084C24.3712 78.9566 24.9363 81.9103 25.5 84.9853Z" fill="#2CCAC2"/>
<path d="M198.5 116.985C198.5 116.985 206 111.985 219 114.485C205.099 103.855 190.864 93.8938 167 89.5216C165.173 101.246 156.673 105.489 147.504 110.065C139.106 114.257 130.148 118.729 125.245 129.485C124.416 135.958 123.567 142.354 122.122 147.985C120.16 155.634 117.1 161.874 111.5 164.985C104.398 161.571 100.807 155.625 98.5526 147.985C96.992 142.697 96.0723 136.597 95.0721 129.964L95 129.485C91.245 121.271 83.7214 116.472 75.9262 111.5C67.1135 105.878 57.9538 100.036 53.5 88.7871C34.2418 91.7236 21.5296 99.7207 3 114.985C9.50333 114.649 25.5 118.485 25.5 118.485C25.5 118.485 45.5 122.985 60.5 138.135C67.097 143.965 73.077 150.383 78.688 156.406C90.4881 169.071 100.656 179.985 111.5 179.985C127.5 179.985 160.425 138.135 160.425 138.135C181 122.485 198.5 116.985 198.5 116.985Z" fill="#BBBBBB"/>
<path d="M198.5 116.985C198.5 116.985 206 111.985 219 114.485C205.099 103.855 190.864 93.8938 167 89.5216C165.173 101.246 156.673 105.489 147.504 110.065C139.106 114.257 130.148 118.729 125.245 129.485C124.416 135.958 123.567 142.354 122.122 147.985C120.16 155.634 117.1 161.874 111.5 164.985C104.398 161.571 100.807 155.625 98.5526 147.985C96.992 142.697 96.0723 136.597 95.0721 129.964L95 129.485C91.245 121.271 83.7214 116.472 75.9262 111.5C67.1135 105.878 57.9538 100.036 53.5 88.7871C34.2418 91.7236 21.5296 99.7207 3 114.985C9.50333 114.649 25.5 118.485 25.5 118.485C25.5 118.485 45.5 122.985 60.5 138.135C67.097 143.965 73.077 150.383 78.688 156.406C90.4881 169.071 100.656 179.985 111.5 179.985C127.5 179.985 160.425 138.135 160.425 138.135C181 122.485 198.5 116.985 198.5 116.985Z" fill="#EBF8FB"/>
<path d="M198.5 146.485V116.985C198.5 116.985 181 122.485 160.425 138.135L161.827 186.468C161.827 186.468 196.291 152.867 198.5 146.485Z" fill="#BBBBBB"/>
<path d="M198.5 146.485V116.985C198.5 116.985 181 122.485 160.425 138.135L161.827 186.468C161.827 186.468 196.291 152.867 198.5 146.485Z" fill="#2CCAC2"/>
<path d="M111.5 179.985V218.485C125 218.485 142.877 203.195 161.827 186.468L160.425 138.135C160.425 138.135 127.5 179.985 111.5 179.985Z" fill="#BBBBBB"/>
<path d="M111.5 179.985V218.485C125 218.485 142.877 203.195 161.827 186.468L160.425 138.135C160.425 138.135 127.5 179.985 111.5 179.985Z" fill="#2CCAC2"/>
<path d="M111.5 218.485V179.985C100.656 179.985 90.4881 169.071 78.688 156.406C73.077 150.383 67.097 143.965 60.5 138.135V183.485C60.5 183.485 98 218.485 111.5 218.485Z" fill="#BBBBBB"/>
<path d="M111.5 218.485V179.985C100.656 179.985 90.4881 169.071 78.688 156.406C73.077 150.383 67.097 143.965 60.5 138.135V183.485C60.5 183.485 98 218.485 111.5 218.485Z" fill="#40E9DB"/>
<path d="M25.5 118.485L23.5 145.985C23.5 157.485 60.5 183.485 60.5 183.485V138.135C45.5 122.985 25.5 118.485 25.5 118.485Z" fill="#BBBBBB"/>
<path d="M25.5 118.485L23.5 145.985C23.5 157.485 60.5 183.485 60.5 183.485V138.135C45.5 122.985 25.5 118.485 25.5 118.485Z" fill="#40E9DB"/>
<path d="M111.5 164.985C117.1 161.874 120.16 155.634 122.122 147.985H98.5526C100.807 155.625 104.398 161.571 111.5 164.985Z" fill="#BBBBBB"/>
<path d="M111.5 164.985C117.1 161.874 120.16 155.634 122.122 147.985H98.5526C100.807 155.625 104.398 161.571 111.5 164.985Z" fill="#29D0C8"/>
<path d="M22 3.48534L21.8144 0.992244C20.6793 1.07676 19.7446 1.9173 19.5405 3.03704L22 3.48534ZM196 3.48534L198.276 2.45083C197.884 1.58941 197.04 1.02287 196.094 0.987127L196 3.48534ZM219 114.485L218.528 116.94C219.558 117.138 220.603 116.672 221.143 115.773C221.683 114.874 221.605 113.733 220.946 112.916L219 114.485ZM198.5 146.485L200.862 147.303C200.954 147.04 201 146.764 201 146.485H198.5ZM23.5 145.985L21.0066 145.804C21.0022 145.864 21 145.925 21 145.985H23.5ZM3 114.985L1 113.485C0.417853 114.262 0.337382 115.304 0.793567 116.161C1.24975 117.017 2.1602 117.532 3.12915 117.482L3 114.985ZM161.827 186.468L163.482 188.342C163.513 188.315 163.543 188.287 163.573 188.258L161.827 186.468ZM160.425 138.135L158.912 136.145C158.743 136.274 158.591 136.423 158.46 136.589L160.425 138.135ZM70 87.4853L70.1781 84.9917C70.1025 84.9863 70.0266 84.9843 69.9507 84.9858L70 87.4853ZM111.5 164.985L110.417 167.238C111.148 167.59 112.005 167.565 112.714 167.171L111.5 164.985ZM149.5 87.4853L149.643 84.9894C149.546 84.9839 149.45 84.984 149.353 84.9896L149.5 87.4853ZM61.8935 47.9853L63.6758 49.7384L63.6758 49.7384L61.8935 47.9853ZM167 89.5216L167.451 87.0626L167 89.5216ZM23.8217 76.084L21.3662 76.5537L21.3662 76.5537L23.8217 76.084ZM75.9262 111.5L74.5817 113.607L74.5817 113.607L75.9262 111.5ZM147.504 110.065L146.388 107.829L146.388 107.829L147.504 110.065ZM78.688 156.406L80.5171 154.702L80.5171 154.702L78.688 156.406ZM125.357 128.609L127.837 128.927L127.837 128.927L125.357 128.609ZM22.1856 5.97844C35.3736 4.99645 45.1868 5.4143 54.4467 8.28782C63.7048 11.1608 72.6309 16.5584 83.9039 25.9095L87.0961 22.0612C75.5717 12.5015 66.0633 6.65751 55.9286 3.51247C45.7955 0.367964 35.2575 -0.00875179 21.8144 0.992244L22.1856 5.97844ZM85.5 26.4853H135.5V21.4853H85.5V26.4853ZM137.072 25.9294C146.53 18.2822 154.068 13.0932 162.755 9.89802C171.423 6.70985 181.435 5.43657 195.906 5.98356L196.094 0.987127C181.252 0.426092 170.527 1.71196 161.029 5.20538C151.55 8.69181 143.494 14.3068 133.928 22.0413L137.072 25.9294ZM193.724 4.51985C195.439 8.29345 196.652 13.6781 197.351 20.1221C198.045 26.529 198.217 33.8261 197.939 41.3303C197.382 56.3701 195.029 72.0066 191.618 82.7273L196.382 84.2433C199.971 72.9641 202.368 56.8506 202.936 41.5154C203.22 33.8321 203.048 26.2854 202.321 19.5829C201.598 12.9176 200.311 6.92722 198.276 2.45083L193.724 4.51985ZM192.054 85.0547L217.054 116.055L220.946 112.916L195.946 81.916L192.054 85.0547ZM219.472 112.03C212.567 110.702 207.058 111.357 203.228 112.383C201.318 112.895 199.832 113.497 198.804 113.984C198.29 114.228 197.889 114.444 197.606 114.605C197.465 114.686 197.353 114.754 197.27 114.805C197.229 114.83 197.196 114.852 197.169 114.869C197.156 114.877 197.145 114.884 197.136 114.89C197.131 114.893 197.127 114.896 197.123 114.899C197.121 114.9 197.119 114.901 197.118 114.902C197.117 114.903 197.116 114.903 197.115 114.904C197.114 114.904 197.113 114.905 198.5 116.985C199.887 119.065 199.886 119.066 199.885 119.067C199.884 119.067 199.883 119.068 199.883 119.068C199.882 119.069 199.881 119.069 199.88 119.07C199.878 119.071 199.876 119.072 199.875 119.073C199.873 119.074 199.873 119.075 199.874 119.074C199.877 119.072 199.887 119.065 199.904 119.055C199.938 119.034 200 118.996 200.089 118.945C200.267 118.844 200.554 118.688 200.946 118.502C201.73 118.13 202.932 117.638 204.522 117.213C207.692 116.364 212.433 115.768 218.528 116.94L219.472 112.03ZM196 116.985V146.485H201V116.985H196ZM25.9934 146.167L27.9934 118.667L23.0066 118.304L21.0066 145.804L25.9934 146.167ZM25.5 118.485C26.083 116.054 26.0828 116.054 26.0826 116.054C26.0824 116.054 26.0821 116.054 26.0818 116.054C26.0811 116.054 26.0802 116.054 26.079 116.053C26.0767 116.053 26.0735 116.052 26.0693 116.051C26.0608 116.049 26.0486 116.046 26.0326 116.042C26.0006 116.035 25.9538 116.023 25.8928 116.009C25.7709 115.98 25.5926 115.939 25.364 115.886C24.9069 115.78 24.2487 115.629 23.4391 115.45C21.8213 115.092 19.5934 114.618 17.1568 114.153C12.3967 113.246 6.4741 112.302 2.87085 112.489L3.12915 117.482C6.02924 117.332 11.3566 118.138 16.2207 119.065C18.5961 119.518 20.7739 119.981 22.3587 120.332C23.1504 120.507 23.7927 120.654 24.2359 120.757C24.4574 120.808 24.6291 120.848 24.7447 120.876C24.8025 120.889 24.8463 120.9 24.8753 120.906C24.8897 120.91 24.9005 120.912 24.9075 120.914C24.911 120.915 24.9135 120.916 24.9151 120.916C24.9159 120.916 24.9165 120.916 24.9168 120.916C24.9169 120.916 24.917 120.916 24.9171 120.916C24.917 120.916 24.917 120.916 25.5 118.485ZM5 116.485C5.01716 116.462 5.03434 116.44 5.05154 116.417C5.06874 116.394 5.08596 116.371 5.10319 116.348C5.12043 116.325 5.13769 116.302 5.15496 116.279C5.17223 116.256 5.18952 116.233 5.20683 116.21C5.22414 116.186 5.24147 116.163 5.25882 116.14C5.27616 116.117 5.29353 116.094 5.31091 116.071C5.32829 116.048 5.34569 116.024 5.36311 116.001C5.38053 115.978 5.39796 115.955 5.41542 115.931C5.43287 115.908 5.45034 115.885 5.46783 115.862C5.48532 115.838 5.50283 115.815 5.52035 115.792C5.53787 115.768 5.55542 115.745 5.57297 115.721C5.59053 115.698 5.60811 115.675 5.6257 115.651C5.64329 115.628 5.6609 115.604 5.67853 115.581C5.69616 115.557 5.7138 115.534 5.73146 115.51C5.74912 115.486 5.7668 115.463 5.78449 115.439C5.80219 115.416 5.8199 115.392 5.83763 115.368C5.85535 115.345 5.8731 115.321 5.89086 115.298C5.90862 115.274 5.9264 115.25 5.94419 115.226C5.96198 115.203 5.97979 115.179 5.99762 115.155C6.01544 115.131 6.03329 115.108 6.05114 115.084C6.069 115.06 6.08687 115.036 6.10476 115.012C6.12265 114.988 6.14056 114.965 6.15848 114.941C6.1764 114.917 6.19434 114.893 6.21229 114.869C6.23025 114.845 6.24821 114.821 6.2662 114.797C6.28418 114.773 6.30218 114.749 6.32019 114.725C6.33821 114.701 6.35624 114.677 6.37428 114.653C6.39233 114.629 6.41039 114.605 6.42846 114.581C6.44654 114.557 6.46463 114.532 6.48274 114.508C6.50084 114.484 6.51896 114.46 6.5371 114.436C6.55523 114.412 6.57338 114.387 6.59154 114.363C6.60971 114.339 6.62789 114.315 6.64608 114.291C6.66427 114.266 6.68248 114.242 6.70071 114.218C6.71893 114.193 6.73716 114.169 6.75541 114.145C6.77367 114.12 6.79193 114.096 6.81021 114.072C6.82849 114.047 6.84678 114.023 6.86509 113.999C6.8834 113.974 6.90172 113.95 6.92005 113.925C6.93839 113.901 6.95674 113.876 6.9751 113.852C6.99346 113.827 7.01184 113.803 7.03022 113.778C7.04861 113.754 7.06702 113.729 7.08543 113.705C7.10385 113.68 7.12228 113.656 7.14072 113.631C7.15917 113.606 7.17762 113.582 7.19609 113.557C7.21456 113.533 7.23304 113.508 7.25154 113.483C7.27003 113.459 7.28854 113.434 7.30706 113.409C7.32558 113.385 7.34412 113.36 7.36266 113.335C7.38121 113.31 7.39977 113.286 7.41834 113.261C7.43691 113.236 7.4555 113.211 7.4741 113.187C7.49269 113.162 7.5113 113.137 7.52992 113.112C7.54854 113.087 7.56718 113.062 7.58582 113.038C7.60447 113.013 7.62313 112.988 7.6418 112.963C7.66047 112.938 7.67915 112.913 7.69784 112.888C7.71654 112.863 7.73524 112.838 7.75396 112.813C7.77268 112.788 7.79141 112.763 7.81015 112.738C7.82889 112.713 7.84764 112.688 7.8664 112.663C7.88517 112.638 7.90394 112.613 7.92273 112.588C7.94151 112.563 7.96031 112.538 7.97912 112.513C7.99793 112.488 8.01675 112.463 8.03558 112.438C8.05441 112.413 8.07325 112.388 8.09211 112.363C8.11096 112.337 8.12982 112.312 8.1487 112.287C8.16757 112.262 8.18646 112.237 8.20535 112.212C8.22425 112.186 8.24316 112.161 8.26207 112.136C8.28099 112.111 8.29992 112.085 8.31885 112.06C8.33779 112.035 8.35674 112.01 8.3757 111.984C8.39466 111.959 8.41362 111.934 8.4326 111.909C8.45158 111.883 8.47057 111.858 8.48957 111.833C8.50857 111.807 8.52758 111.782 8.54659 111.757C8.56561 111.731 8.58464 111.706 8.60368 111.68C8.62271 111.655 8.64176 111.63 8.66082 111.604C8.67987 111.579 8.69894 111.553 8.71802 111.528C8.73709 111.503 8.75618 111.477 8.77527 111.452C8.79436 111.426 8.81347 111.401 8.83258 111.375C8.85169 111.35 8.87081 111.324 8.88994 111.299C8.90907 111.273 8.92821 111.248 8.94736 111.222C8.96651 111.197 8.98566 111.171 9.00483 111.146C9.02399 111.12 9.04317 111.094 9.06235 111.069C9.08153 111.043 9.10073 111.018 9.11992 110.992C9.13912 110.966 9.15833 110.941 9.17755 110.915C9.19676 110.89 9.21599 110.864 9.23522 110.838C9.25445 110.813 9.27369 110.787 9.29294 110.761C9.31219 110.736 9.33145 110.71 9.35071 110.684C9.36998 110.659 9.38925 110.633 9.40853 110.607C9.42781 110.582 9.44709 110.556 9.46639 110.53C9.48568 110.504 9.50499 110.479 9.5243 110.453C9.54361 110.427 9.56292 110.401 9.58225 110.376C9.60157 110.35 9.62091 110.324 9.64024 110.298C9.65958 110.273 9.67893 110.247 9.69828 110.221C9.71764 110.195 9.737 110.169 9.75636 110.144C9.77573 110.118 9.7951 110.092 9.81448 110.066C9.83386 110.04 9.85325 110.014 9.87265 109.988C9.89204 109.963 9.91144 109.937 9.93085 109.911C9.95025 109.885 9.96967 109.859 9.98909 109.833C10.0085 109.807 10.0279 109.781 10.0474 109.756C10.0668 109.73 10.0862 109.704 10.1057 109.678C10.1251 109.652 10.1446 109.626 10.164 109.6C10.1835 109.574 10.2029 109.548 10.2224 109.522C10.2419 109.496 10.2614 109.47 10.2808 109.444C10.3003 109.418 10.3198 109.392 10.3393 109.366C10.3588 109.34 10.3783 109.314 10.3978 109.288C10.4173 109.262 10.4368 109.236 10.4563 109.21C10.4758 109.184 10.4953 109.158 10.5148 109.132C10.5344 109.106 10.5539 109.08 10.5734 109.054C10.593 109.028 10.6125 109.002 10.632 108.976C10.6516 108.95 10.6711 108.924 10.6907 108.898C10.7102 108.872 10.7298 108.846 10.7493 108.82C10.7689 108.793 10.7885 108.767 10.808 108.741C10.8276 108.715 10.8472 108.689 10.8667 108.663C10.8863 108.637 10.9059 108.611 10.9255 108.585C10.9451 108.559 10.9647 108.532 10.9843 108.506C11.0038 108.48 11.0234 108.454 11.043 108.428C11.0626 108.402 11.0823 108.376 11.1019 108.35C11.1215 108.323 11.1411 108.297 11.1607 108.271C11.1803 108.245 11.1999 108.219 11.2196 108.193C11.2392 108.166 11.2588 108.14 11.2784 108.114C11.2981 108.088 11.3177 108.062 11.3373 108.036C11.357 108.009 11.3766 107.983 11.3962 107.957C11.4159 107.931 11.4355 107.905 11.4552 107.878C11.4748 107.852 11.4945 107.826 11.5141 107.8C11.5338 107.774 11.5534 107.747 11.5731 107.721C11.5928 107.695 11.6124 107.669 11.6321 107.643C11.6517 107.616 11.6714 107.59 11.6911 107.564C11.7107 107.538 11.7304 107.511 11.7501 107.485C11.7698 107.459 11.7894 107.433 11.8091 107.407C11.8288 107.38 11.8485 107.354 11.8681 107.328C11.8878 107.302 11.9075 107.275 11.9272 107.249C11.9469 107.223 11.9666 107.197 11.9862 107.17C12.0059 107.144 12.0256 107.118 12.0453 107.092C12.065 107.065 12.0847 107.039 12.1044 107.013C12.1241 106.987 12.1438 106.96 12.1635 106.934C12.1832 106.908 12.2029 106.882 12.2226 106.855C12.2423 106.829 12.262 106.803 12.2816 106.776C12.3013 106.75 12.321 106.724 12.3407 106.698C12.3605 106.671 12.3802 106.645 12.3999 106.619C12.4196 106.593 12.4393 106.566 12.459 106.54C12.4787 106.514 12.4984 106.487 12.5181 106.461C12.5378 106.435 12.5575 106.409 12.5772 106.382C12.5969 106.356 12.6166 106.33 12.6363 106.304C12.656 106.277 12.6757 106.251 12.6954 106.225C12.7151 106.198 12.7348 106.172 12.7545 106.146C12.7742 106.12 12.7939 106.093 12.8136 106.067C12.8333 106.041 12.853 106.015 12.8728 105.988C12.8925 105.962 12.9122 105.936 12.9319 105.91C12.9516 105.883 12.9713 105.857 12.991 105.831C13.0107 105.804 13.0304 105.778 13.0501 105.752C13.0698 105.726 13.0895 105.699 13.1092 105.673C13.1288 105.647 13.1485 105.621 13.1682 105.594C13.1879 105.568 13.2076 105.542 13.2273 105.516C13.247 105.489 13.2667 105.463 13.2864 105.437C13.3061 105.411 13.3258 105.384 13.3455 105.358C13.3651 105.332 13.3848 105.306 13.4045 105.279C13.4242 105.253 13.4439 105.227 13.4635 105.201C13.4832 105.174 13.5029 105.148 13.5226 105.122C13.5422 105.096 13.5619 105.069 13.5816 105.043C13.6013 105.017 13.6209 104.991 13.6406 104.965C13.6603 104.938 13.6799 104.912 13.6996 104.886C13.7193 104.86 13.7389 104.833 13.7586 104.807C13.7782 104.781 13.7979 104.755 13.8175 104.729C13.8372 104.702 13.8568 104.676 13.8765 104.65C13.8961 104.624 13.9158 104.598 13.9354 104.571C13.955 104.545 13.9747 104.519 13.9943 104.493C14.0139 104.467 14.0336 104.441 14.0532 104.414C14.0728 104.388 14.0924 104.362 14.1121 104.336C14.1317 104.31 14.1513 104.284 14.1709 104.257C14.1905 104.231 14.2101 104.205 14.2297 104.179C14.2494 104.153 14.269 104.127 14.2886 104.101C14.3082 104.074 14.3277 104.048 14.3473 104.022C14.3669 103.996 14.3865 103.97 14.4061 103.944C14.4257 103.918 14.4453 103.892 14.4648 103.866C14.4844 103.839 14.504 103.813 14.5235 103.787C14.5431 103.761 14.5627 103.735 14.5822 103.709C14.6018 103.683 14.6213 103.657 14.6409 103.631C14.6604 103.605 14.68 103.579 14.6995 103.553C14.719 103.527 14.7386 103.501 14.7581 103.475C14.7776 103.448 14.7972 103.422 14.8167 103.396C14.8362 103.37 14.8557 103.344 14.8752 103.318C14.8947 103.292 14.9142 103.266 14.9337 103.24C14.9532 103.214 14.9727 103.188 14.9922 103.162C15.0117 103.136 15.0312 103.11 15.0506 103.084C15.0701 103.059 15.0896 103.033 15.109 103.007C15.1285 102.981 15.148 102.955 15.1674 102.929C15.1869 102.903 15.2063 102.877 15.2258 102.851C15.2452 102.825 15.2646 102.799 15.2841 102.773C15.3035 102.747 15.3229 102.721 15.3423 102.696C15.3617 102.67 15.3811 102.644 15.4005 102.618C15.4199 102.592 15.4393 102.566 15.4587 102.54C15.4781 102.514 15.4975 102.489 15.5169 102.463C15.5363 102.437 15.5556 102.411 15.575 102.385C15.5943 102.36 15.6137 102.334 15.6331 102.308C15.6524 102.282 15.6717 102.256 15.6911 102.231C15.7104 102.205 15.7297 102.179 15.7491 102.153C15.7684 102.127 15.7877 102.102 15.807 102.076C15.8263 102.05 15.8456 102.025 15.8649 101.999C15.8842 101.973 15.9035 101.947 15.9227 101.922C15.942 101.896 15.9613 101.87 15.9805 101.845C15.9998 101.819 16.019 101.793 16.0383 101.768C16.0575 101.742 16.0768 101.716 16.096 101.691C16.1152 101.665 16.1344 101.639 16.1536 101.614C16.1728 101.588 16.192 101.563 16.2112 101.537C16.2304 101.511 16.2496 101.486 16.2688 101.46C16.288 101.435 16.3071 101.409 16.3263 101.384C16.3455 101.358 16.3646 101.333 16.3838 101.307C16.4029 101.281 16.422 101.256 16.4411 101.23C16.4603 101.205 16.4794 101.179 16.4985 101.154C16.5176 101.129 16.5367 101.103 16.5558 101.078C16.5749 101.052 16.5939 101.027 16.613 101.001C16.6321 100.976 16.6511 100.95 16.6702 100.925C16.6892 100.9 16.7083 100.874 16.7273 100.849C16.7463 100.824 16.7654 100.798 16.7844 100.773C16.8034 100.747 16.8224 100.722 16.8414 100.697C16.8604 100.671 16.8794 100.646 16.8983 100.621C16.9173 100.596 16.9363 100.57 16.9552 100.545C16.9742 100.52 16.9931 100.495 17.012 100.469C17.031 100.444 17.0499 100.419 17.0688 100.394C17.0877 100.368 17.1066 100.343 17.1255 100.318C17.1444 100.293 17.1633 100.268 17.1821 100.242C17.201 100.217 17.2198 100.192 17.2387 100.167C17.2575 100.142 17.2764 100.117 17.2952 100.092C17.314 100.067 17.3328 100.042 17.3516 100.016C17.3704 99.9914 17.3892 99.9664 17.408 99.9413C17.4268 99.9163 17.4455 99.8913 17.4643 99.8663C17.483 99.8413 17.5018 99.8163 17.5205 99.7913C17.5393 99.7663 17.558 99.7414 17.5767 99.7164C17.5954 99.6915 17.6141 99.6665 17.6328 99.6416C17.6515 99.6167 17.6701 99.5918 17.6888 99.5669C17.7075 99.542 17.7261 99.5172 17.7447 99.4923C17.7634 99.4675 17.782 99.4426 17.8006 99.4178C17.8192 99.393 17.8378 99.3682 17.8564 99.3434C17.875 99.3186 17.8936 99.2939 17.9121 99.2691C17.9307 99.2444 17.9493 99.2196 17.9678 99.1949C17.9863 99.1702 18.0049 99.1455 18.0234 99.1208C18.0419 99.0961 18.0604 99.0715 18.0789 99.0468C18.0974 99.0222 18.1158 98.9976 18.1343 98.9729C18.1527 98.9483 18.1712 98.9237 18.1896 98.8992C18.2081 98.8746 18.2265 98.85 18.2449 98.8255C18.2633 98.8009 18.2817 98.7764 18.3001 98.7519C18.3184 98.7274 18.3368 98.7029 18.3552 98.6784C18.3735 98.654 18.3919 98.6295 18.4102 98.6051C18.4285 98.5806 18.4468 98.5562 18.4651 98.5318C18.4834 98.5074 18.5017 98.4831 18.52 98.4587C18.5382 98.4343 18.5565 98.41 18.5747 98.3857C18.593 98.3614 18.6112 98.3371 18.6294 98.3128C18.6476 98.2885 18.6658 98.2642 18.684 98.24C18.7022 98.2157 18.7204 98.1915 18.7385 98.1673C18.7567 98.1431 18.7748 98.1189 18.7929 98.0948C18.811 98.0706 18.8292 98.0464 18.8472 98.0223C18.8653 97.9982 18.8834 97.9741 18.9015 97.95C18.9196 97.9259 18.9376 97.9019 18.9556 97.8778C18.9737 97.8538 18.9917 97.8297 19.0097 97.8057C19.0277 97.7817 19.0457 97.7577 19.0637 97.7338C19.0816 97.7098 19.0996 97.6859 19.1175 97.6619C19.1355 97.638 19.1534 97.6141 19.1713 97.5902C19.1892 97.5664 19.2071 97.5425 19.225 97.5187C19.2429 97.4948 19.2607 97.471 19.2786 97.4472C19.2964 97.4234 19.3143 97.3997 19.3321 97.3759C19.3499 97.3521 19.3677 97.3284 19.3855 97.3047C19.4032 97.281 19.421 97.2573 19.4388 97.2336C19.4565 97.21 19.4742 97.1863 19.492 97.1627C19.5097 97.1391 19.5274 97.1155 19.545 97.0919C19.5627 97.0683 19.5804 97.0448 19.598 97.0213C19.6157 96.9977 19.6333 96.9742 19.6509 96.9507C19.6686 96.9272 19.6862 96.9038 19.7037 96.8803C19.7213 96.8569 19.7389 96.8335 19.7564 96.8101C19.774 96.7867 19.7915 96.7633 19.809 96.74C19.8265 96.7166 19.844 96.6933 19.8615 96.67C19.879 96.6467 19.8964 96.6234 19.9139 96.6002C19.9313 96.5769 19.9487 96.5537 19.9661 96.5305C19.9835 96.5073 20.0009 96.4841 20.0183 96.4609C20.0357 96.4378 20.053 96.4146 20.0703 96.3915C20.0877 96.3684 20.105 96.3453 20.1223 96.3223C20.1396 96.2992 20.1569 96.2762 20.1741 96.2531C20.1914 96.2301 20.2086 96.2071 20.2259 96.1842C20.2431 96.1612 20.2603 96.1383 20.2775 96.1154C20.2947 96.0925 20.3118 96.0696 20.329 96.0467C20.3461 96.0238 20.3632 96.001 20.3804 95.9782C20.3975 95.9554 20.4146 95.9326 20.4316 95.9098C20.4487 95.8871 20.4658 95.8643 20.4828 95.8416C20.4998 95.8189 20.5168 95.7962 20.5338 95.7735C20.5508 95.7509 20.5678 95.7282 20.5848 95.7056C20.6017 95.683 20.6187 95.6605 20.6356 95.6379C20.6525 95.6153 20.6694 95.5928 20.6863 95.5703C20.7031 95.5478 20.72 95.5253 20.7368 95.5029C20.7537 95.4804 20.7705 95.458 20.7873 95.4356C20.8041 95.4132 20.8209 95.3908 20.8376 95.3685C20.8544 95.3461 20.8711 95.3238 20.8878 95.3015C20.9046 95.2793 20.9212 95.257 20.9379 95.2348C20.9546 95.2125 20.9713 95.1903 20.9879 95.1681C21.0045 95.146 21.0211 95.1238 21.0377 95.1017C21.0543 95.0796 21.0709 95.0575 21.0874 95.0354C21.104 95.0133 21.1205 94.9913 21.137 94.9693C21.1536 94.9473 21.17 94.9253 21.1865 94.9033C21.203 94.8814 21.2194 94.8594 21.2358 94.8375C21.2523 94.8156 21.2687 94.7938 21.2851 94.7719C21.3014 94.7501 21.3178 94.7283 21.3341 94.7065C21.3505 94.6847 21.3668 94.6629 21.3831 94.6412C21.3994 94.6195 21.4157 94.5978 21.4319 94.5761C21.4482 94.5544 21.4644 94.5328 21.4806 94.5112C21.4968 94.4896 21.513 94.468 21.5292 94.4464C21.5453 94.4249 21.5615 94.4034 21.5776 94.3819C21.5937 94.3604 21.6098 94.3389 21.6259 94.3175C21.6419 94.2961 21.658 94.2747 21.674 94.2533C21.6901 94.2319 21.7061 94.2106 21.722 94.1893C21.738 94.1679 21.754 94.1467 21.7699 94.1254C21.7859 94.1042 21.8018 94.0829 21.8177 94.0617C21.8336 94.0406 21.8494 94.0194 21.8653 93.9983C21.8811 93.9771 21.897 93.956 21.9128 93.935C21.9286 93.9139 21.9443 93.8929 21.9601 93.8719C21.9758 93.8509 21.9916 93.8299 22.0073 93.8089C22.023 93.788 22.0387 93.7671 22.0543 93.7462C22.07 93.7253 22.0856 93.7045 22.1012 93.6837C22.1168 93.6629 22.1324 93.6421 22.148 93.6213C22.1636 93.6006 22.1791 93.5799 22.1946 93.5592C22.2101 93.5385 22.2256 93.5178 22.2411 93.4972C22.2566 93.4766 22.272 93.456 22.2874 93.4354C22.3028 93.4149 22.3182 93.3943 22.3336 93.3739C22.349 93.3534 22.3643 93.3329 22.3796 93.3125C22.395 93.292 22.4103 93.2717 22.4255 93.2513C22.4408 93.2309 22.456 93.2106 22.4713 93.1903C22.4865 93.17 22.5017 93.1497 22.5169 93.1295C22.532 93.1093 22.5472 93.0891 22.5623 93.0689C22.5774 93.0488 22.5925 93.0286 22.6076 93.0086C22.6226 92.9885 22.6377 92.9684 22.6527 92.9484C22.6677 92.9283 22.6827 92.9084 22.6977 92.8884C22.7127 92.8684 22.7276 92.8485 22.7425 92.8286C22.7574 92.8087 22.7723 92.7889 22.7872 92.7691C22.8021 92.7492 22.8169 92.7295 22.8317 92.7097C22.8465 92.69 22.8613 92.6702 22.8761 92.6506C22.8908 92.6309 22.9056 92.6112 22.9203 92.5916C22.935 92.572 22.9497 92.5524 22.9643 92.5329C22.979 92.5134 22.9936 92.4939 23.0082 92.4744C23.0228 92.4549 23.0374 92.4355 23.0519 92.4161C23.0665 92.3967 23.081 92.3773 23.0955 92.358C23.11 92.3387 23.1245 92.3194 23.1389 92.3001C23.1533 92.2809 23.1678 92.2616 23.1821 92.2425C23.1965 92.2233 23.2109 92.2041 23.2252 92.185C23.2396 92.1659 23.2539 92.1468 23.2681 92.1278C23.2824 92.1088 23.2967 92.0898 23.3109 92.0708C23.3251 92.0518 23.3393 92.0329 23.3535 92.014C23.3676 91.9951 23.3818 91.9763 23.3959 91.9575C23.41 91.9386 23.4241 91.9199 23.4381 91.9011C23.4522 91.8824 23.4662 91.8637 23.4802 91.845C23.4942 91.8263 23.5082 91.8077 23.5221 91.7891C23.5361 91.7705 23.55 91.752 23.5639 91.7335C23.5778 91.7149 23.5916 91.6965 23.6055 91.678C23.6193 91.6596 23.6331 91.6412 23.6469 91.6228C23.6606 91.6045 23.6744 91.5861 23.6881 91.5679C23.7018 91.5496 23.7155 91.5313 23.7292 91.5131C23.7428 91.4949 23.7564 91.4767 23.77 91.4586C23.7836 91.4405 23.7972 91.4224 23.8108 91.4043C23.8243 91.3863 23.8378 91.3682 23.8513 91.3503C23.8648 91.3323 23.8782 91.3144 23.8916 91.2965C23.9051 91.2786 23.9185 91.2607 23.9318 91.2429C23.9452 91.2251 23.9585 91.2073 23.9718 91.1895C23.9851 91.1718 23.9984 91.1541 24.0117 91.1365C24.0249 91.1188 24.0381 91.1012 24.0513 91.0836C24.0645 91.066 24.0776 91.0485 24.0908 91.031C24.1039 91.0135 24.117 90.996 24.13 90.9786C24.1431 90.9612 24.1561 90.9438 24.1691 90.9265C24.1821 90.9091 24.1951 90.8918 24.2081 90.8746C24.221 90.8573 24.2339 90.8401 24.2468 90.8229C24.2597 90.8058 24.2725 90.7886 24.2853 90.7715C24.2982 90.7544 24.3109 90.7374 24.3237 90.7204C24.3365 90.7034 24.3492 90.6864 24.3619 90.6695C24.3746 90.6526 24.3872 90.6357 24.3999 90.6188C24.4125 90.602 24.4251 90.5852 24.4377 90.5684C24.4502 90.5517 24.4628 90.535 24.4753 90.5183C24.4878 90.5016 24.5003 90.485 24.5127 90.4684C24.5251 90.4518 24.5376 90.4353 24.5499 90.4187C24.5623 90.4022 24.5747 90.3858 24.587 90.3694C24.5993 90.3529 24.6116 90.3366 24.6238 90.3202C24.6361 90.3039 24.6483 90.2876 24.6605 90.2714C24.6727 90.2551 24.6848 90.2389 24.6969 90.2227C24.7091 90.2066 24.7211 90.1905 24.7332 90.1744C24.7453 90.1583 24.7573 90.1423 24.7693 90.1263C24.7813 90.1103 24.7932 90.0944 24.8051 90.0785C24.8171 90.0626 24.829 90.0467 24.8408 90.0309C24.8527 90.0151 24.8645 89.9993 24.8763 89.9836C24.8881 89.9679 24.8999 89.9522 24.9116 89.9365C24.9233 89.9209 24.935 89.9053 24.9467 89.8898C24.9583 89.8742 24.97 89.8587 24.9815 89.8433C24.9931 89.8278 25.0047 89.8124 25.0162 89.797C25.0277 89.7817 25.0392 89.7663 25.0507 89.7511C25.0622 89.7358 25.0736 89.7205 25.085 89.7054C25.0964 89.6902 25.1077 89.675 25.119 89.6599C25.1304 89.6448 25.1417 89.6298 25.1529 89.6148C25.1642 89.5998 25.1754 89.5848 25.1866 89.5699C25.1978 89.555 25.2089 89.5401 25.22 89.5253C25.2311 89.5105 25.2422 89.4957 25.2533 89.481C25.2643 89.4662 25.2753 89.4516 25.2863 89.4369C25.2973 89.4223 25.3082 89.4077 25.3191 89.3931C25.33 89.3786 25.3409 89.3641 25.3517 89.3497C25.3626 89.3352 25.3734 89.3208 25.3842 89.3064C25.3949 89.2921 25.4057 89.2778 25.4164 89.2635C25.4271 89.2493 25.4377 89.235 25.4483 89.2209C25.459 89.2067 25.4696 89.1926 25.4801 89.1785C25.4907 89.1644 25.5012 89.1504 25.5117 89.1364C25.5222 89.1225 25.5326 89.1085 25.543 89.0946C25.5534 89.0808 25.5638 89.0669 25.5741 89.0531C25.5845 89.0393 25.5948 89.0256 25.6051 89.0119C25.6153 88.9982 25.6256 88.9846 25.6357 88.971C25.6459 88.9574 25.6561 88.9439 25.6662 88.9304C25.6763 88.9169 25.6864 88.9034 25.6965 88.89C25.7065 88.8766 25.7165 88.8633 25.7265 88.85C25.7365 88.8367 25.7464 88.8234 25.7563 88.8102C25.7662 88.797 25.7761 88.7839 25.7859 88.7707C25.7958 88.7576 25.8055 88.7446 25.8153 88.7316C25.8251 88.7186 25.8348 88.7056 25.8445 88.6927C25.8541 88.6798 25.8638 88.667 25.8734 88.6541C25.883 88.6413 25.8926 88.6286 25.9021 88.6159C25.9116 88.6032 25.9211 88.5905 25.9306 88.5779C25.94 88.5653 25.9494 88.5528 25.9588 88.5402C25.9682 88.5277 25.9775 88.5153 25.9868 88.5029C25.9961 88.4905 26.0054 88.4781 26.0146 88.4658C26.0238 88.4535 26.033 88.4413 26.0422 88.4291C26.0513 88.4169 26.0605 88.4047 26.0695 88.3926C26.0786 88.3805 26.0876 88.3685 26.0966 88.3565C26.1056 88.3445 26.1146 88.3325 26.1235 88.3206C26.1324 88.3088 26.1413 88.2969 26.1501 88.2851C26.159 88.2733 26.1678 88.2616 26.1766 88.2499C26.1853 88.2382 26.194 88.2266 26.2027 88.215C26.2114 88.2034 26.2201 88.1919 26.2287 88.1804C26.2373 88.169 26.2458 88.1575 26.2544 88.1462C26.2629 88.1348 26.2714 88.1235 26.2798 88.1122C26.2883 88.1009 26.2967 88.0897 26.3051 88.0786C26.3134 88.0674 26.3218 88.0563 26.3301 88.0452C26.3384 88.0342 26.3466 88.0232 26.3548 88.0122C26.363 88.0013 26.3712 87.9904 26.3793 87.9795C26.3875 87.9687 26.3956 87.9579 26.4036 87.9472C26.4117 87.9364 26.4197 87.9258 26.4276 87.9151C26.4356 87.9045 26.4435 87.8939 26.4514 87.8834C26.4593 87.8729 26.4672 87.8624 26.475 87.852C26.4828 87.8416 26.4906 87.8312 26.4983 87.8209C26.506 87.8106 26.5137 87.8004 26.5213 87.7902C26.529 87.78 26.5366 87.7699 26.5442 87.7598C26.5517 87.7497 26.5592 87.7397 26.5667 87.7297C26.5742 87.7197 26.5816 87.7098 26.589 87.6999C26.5964 87.6901 26.6038 87.6803 26.6111 87.6705C26.6184 87.6608 26.6257 87.6511 26.6329 87.6414C26.6402 87.6318 26.6474 87.6222 26.6545 87.6126C26.6617 87.6031 26.6688 87.5936 26.6758 87.5842C26.6829 87.5748 26.6899 87.5654 26.6969 87.5561C26.7039 87.5468 26.7108 87.5376 26.7177 87.5284C26.7246 87.5192 26.7315 87.51 26.7383 87.5009C26.7451 87.4919 26.7519 87.4828 26.7586 87.4739C26.7653 87.4649 26.772 87.456 26.7787 87.4471C26.7853 87.4383 26.7919 87.4295 26.7985 87.4207C26.805 87.412 26.8115 87.4033 26.818 87.3947C26.8245 87.386 26.8309 87.3775 26.8373 87.3689C26.8437 87.3604 26.85 87.352 26.8563 87.3436C26.8626 87.3352 26.8689 87.3268 26.8751 87.3185C26.8813 87.3103 26.8875 87.302 26.8936 87.2939C26.8997 87.2857 26.9058 87.2776 26.9118 87.2695C26.9179 87.2615 26.9239 87.2535 26.9298 87.2455C26.9358 87.2376 26.9417 87.2297 26.9476 87.2219C26.9534 87.2141 26.9593 87.2063 26.965 87.1986C26.9708 87.1909 26.9765 87.1833 26.9822 87.1757C26.9879 87.1681 26.9936 87.1606 26.9992 87.1531C27.0048 87.1456 27.0103 87.1382 27.0158 87.1309C27.0213 87.1235 27.0268 87.1162 27.0322 87.109C27.0377 87.1018 27.043 87.0946 27.0484 87.0875C27.0537 87.0804 27.059 87.0733 27.0642 87.0663C27.0695 87.0593 27.0747 87.0524 27.0798 87.0455C27.085 87.0387 27.0901 87.0318 27.0952 87.0251C27.1002 87.0183 27.1053 87.0116 27.1102 87.005C27.1152 86.9984 27.1201 86.9918 27.125 86.9853C27.1299 86.9788 27.1347 86.9723 27.1395 86.9659C27.1443 86.9595 27.1491 86.9532 27.1538 86.9469C27.1585 86.9407 27.1631 86.9345 27.1677 86.9283C27.1724 86.9222 27.1769 86.9161 27.1814 86.9101C27.186 86.904 27.1904 86.8981 27.1949 86.8922C27.1993 86.8863 27.2037 86.8804 27.208 86.8746C27.2123 86.8689 27.2166 86.8632 27.2209 86.8575C27.2251 86.8518 27.2293 86.8462 27.2335 86.8407C27.2376 86.8352 27.2417 86.8297 27.2458 86.8243C27.2498 86.8189 27.2538 86.8135 27.2578 86.8083C27.2618 86.803 27.2657 86.7978 27.2695 86.7926C27.2734 86.7874 27.2772 86.7823 27.281 86.7773C27.2848 86.7723 27.2885 86.7673 27.2922 86.7624C27.2959 86.7575 27.2995 86.7526 27.3031 86.7479C27.3067 86.7431 27.3102 86.7384 27.3137 86.7337C27.3172 86.7291 27.3206 86.7245 27.324 86.7199C27.3274 86.7154 27.3308 86.7109 27.3341 86.7065C27.3374 86.7021 27.3406 86.6978 27.3438 86.6935C27.3471 86.6892 27.3502 86.685 27.3533 86.6809C27.3564 86.6767 27.3595 86.6727 27.3625 86.6686C27.3655 86.6646 27.3685 86.6607 27.3714 86.6568C27.3743 86.6529 27.3772 86.6491 27.38 86.6453C27.3828 86.6415 27.3856 86.6378 27.3883 86.6342C27.3911 86.6306 27.3937 86.627 27.3964 86.6235C27.399 86.62 27.4016 86.6166 27.4041 86.6132C27.4066 86.6098 27.4091 86.6065 27.4115 86.6033C27.414 86.6 27.4163 86.5969 27.4187 86.5938C27.421 86.5906 27.4233 86.5876 27.4255 86.5846C27.4278 86.5816 27.4299 86.5787 27.4321 86.5759C27.4342 86.573 27.4363 86.5703 27.4383 86.5675C27.4404 86.5648 27.4424 86.5622 27.4443 86.5596C27.4462 86.557 27.4481 86.5545 27.45 86.552C27.4518 86.5496 27.4536 86.5472 27.4553 86.5449C27.4571 86.5426 27.4588 86.5403 27.4604 86.5381C27.462 86.5359 27.4636 86.5338 27.4652 86.5318C27.4667 86.5297 27.4682 86.5277 27.4696 86.5258C27.4711 86.5239 27.4724 86.5221 27.4738 86.5203C27.4751 86.5185 27.4764 86.5168 27.4776 86.5151C27.4789 86.5135 27.4801 86.5119 27.4812 86.5104C27.4823 86.5089 27.4834 86.5074 27.4844 86.5061C27.4855 86.5047 27.4865 86.5034 27.4874 86.5021C27.4883 86.5009 27.4892 86.4997 27.49 86.4986C27.4909 86.4975 27.4916 86.4965 27.4924 86.4955C27.4931 86.4945 27.4938 86.4936 27.4944 86.4928C27.495 86.492 27.4956 86.4912 27.4961 86.4905C27.4966 86.4898 27.4971 86.4892 27.4975 86.4887C27.4979 86.4881 27.4983 86.4876 27.4986 86.4872C27.4989 86.4868 27.4992 86.4864 27.4994 86.4862C27.4996 86.4859 27.4997 86.4857 27.4998 86.4855C27.4999 86.4854 27.5 86.4853 25.5 84.9853C23.5 83.4853 23.4999 83.4854 23.4998 83.4855C23.4997 83.4857 23.4996 83.4859 23.4994 83.4862C23.4992 83.4864 23.4989 83.4868 23.4986 83.4872C23.4983 83.4876 23.4979 83.4881 23.4975 83.4887C23.4971 83.4892 23.4966 83.4898 23.4961 83.4905C23.4956 83.4912 23.495 83.492 23.4944 83.4928C23.4938 83.4936 23.4931 83.4945 23.4924 83.4955C23.4916 83.4965 23.4909 83.4975 23.49 83.4986C23.4892 83.4997 23.4883 83.5009 23.4874 83.5021C23.4865 83.5034 23.4855 83.5047 23.4844 83.5061C23.4834 83.5074 23.4823 83.5089 23.4812 83.5104C23.4801 83.5119 23.4789 83.5135 23.4776 83.5151C23.4764 83.5168 23.4751 83.5185 23.4738 83.5203C23.4724 83.5221 23.4711 83.5239 23.4696 83.5258C23.4682 83.5277 23.4667 83.5297 23.4652 83.5318C23.4636 83.5338 23.462 83.5359 23.4604 83.5381C23.4588 83.5403 23.4571 83.5426 23.4553 83.5449C23.4536 83.5472 23.4518 83.5496 23.45 83.552C23.4481 83.5545 23.4462 83.557 23.4443 83.5596C23.4424 83.5622 23.4404 83.5648 23.4383 83.5675C23.4363 83.5703 23.4342 83.573 23.4321 83.5759C23.4299 83.5787 23.4278 83.5816 23.4255 83.5846C23.4233 83.5876 23.421 83.5906 23.4187 83.5938C23.4163 83.5969 23.414 83.6 23.4115 83.6033C23.4091 83.6065 23.4066 83.6098 23.4041 83.6132C23.4016 83.6166 23.399 83.62 23.3964 83.6235C23.3937 83.627 23.3911 83.6306 23.3883 83.6342C23.3856 83.6378 23.3828 83.6415 23.38 83.6453C23.3772 83.6491 23.3743 83.6529 23.3714 83.6568C23.3685 83.6607 23.3655 83.6646 23.3625 83.6686C23.3595 83.6727 23.3564 83.6767 23.3533 83.6809C23.3502 83.685 23.3471 83.6892 23.3438 83.6935C23.3406 83.6978 23.3374 83.7021 23.3341 83.7065C23.3308 83.7109 23.3274 83.7154 23.324 83.7199C23.3206 83.7245 23.3172 83.7291 23.3137 83.7337C23.3102 83.7384 23.3067 83.7431 23.3031 83.7479C23.2995 83.7526 23.2959 83.7575 23.2922 83.7624C23.2885 83.7673 23.2848 83.7723 23.281 83.7773C23.2772 83.7823 23.2734 83.7874 23.2695 83.7926C23.2657 83.7978 23.2618 83.803 23.2578 83.8083C23.2538 83.8135 23.2498 83.8189 23.2458 83.8243C23.2417 83.8297 23.2376 83.8352 23.2335 83.8407C23.2293 83.8462 23.2251 83.8518 23.2209 83.8575C23.2166 83.8632 23.2123 83.8689 23.208 83.8746C23.2037 83.8804 23.1993 83.8863 23.1949 83.8922C23.1904 83.8981 23.186 83.904 23.1814 83.9101C23.1769 83.9161 23.1724 83.9222 23.1677 83.9283C23.1631 83.9345 23.1585 83.9407 23.1538 83.9469C23.1491 83.9532 23.1443 83.9595 23.1395 83.9659C23.1347 83.9723 23.1299 83.9788 23.125 83.9853C23.1201 83.9918 23.1152 83.9984 23.1102 84.005C23.1053 84.0116 23.1002 84.0183 23.0952 84.0251C23.0901 84.0318 23.085 84.0387 23.0798 84.0455C23.0747 84.0524 23.0695 84.0593 23.0642 84.0663C23.059 84.0733 23.0537 84.0804 23.0484 84.0875C23.043 84.0946 23.0377 84.1018 23.0322 84.109C23.0268 84.1162 23.0213 84.1235 23.0158 84.1309C23.0103 84.1382 23.0048 84.1456 22.9992 84.1531C22.9936 84.1606 22.9879 84.1681 22.9822 84.1757C22.9765 84.1833 22.9708 84.1909 22.965 84.1986C22.9593 84.2063 22.9534 84.2141 22.9476 84.2219C22.9417 84.2297 22.9358 84.2376 22.9298 84.2455C22.9239 84.2535 22.9179 84.2615 22.9118 84.2695C22.9058 84.2776 22.8997 84.2857 22.8936 84.2939C22.8875 84.302 22.8813 84.3103 22.8751 84.3185C22.8689 84.3268 22.8626 84.3352 22.8563 84.3436C22.85 84.352 22.8437 84.3604 22.8373 84.3689C22.8309 84.3775 22.8245 84.386 22.818 84.3947C22.8115 84.4033 22.805 84.412 22.7985 84.4207C22.7919 84.4295 22.7853 84.4383 22.7787 84.4471C22.772 84.456 22.7653 84.4649 22.7586 84.4739C22.7519 84.4828 22.7451 84.4919 22.7383 84.5009C22.7315 84.51 22.7246 84.5192 22.7177 84.5284C22.7108 84.5376 22.7039 84.5468 22.6969 84.5561C22.6899 84.5654 22.6829 84.5748 22.6758 84.5842C22.6688 84.5936 22.6617 84.6031 22.6545 84.6126C22.6474 84.6222 22.6402 84.6318 22.6329 84.6414C22.6257 84.6511 22.6184 84.6608 22.6111 84.6705C22.6038 84.6803 22.5964 84.6901 22.589 84.6999C22.5816 84.7098 22.5742 84.7197 22.5667 84.7297C22.5592 84.7397 22.5517 84.7497 22.5442 84.7598C22.5366 84.7699 22.529 84.78 22.5213 84.7902C22.5137 84.8004 22.506 84.8106 22.4983 84.8209C22.4906 84.8312 22.4828 84.8416 22.475 84.852C22.4672 84.8624 22.4593 84.8729 22.4514 84.8834C22.4435 84.8939 22.4356 84.9045 22.4276 84.9151C22.4197 84.9258 22.4117 84.9364 22.4036 84.9472C22.3956 84.9579 22.3875 84.9687 22.3793 84.9795C22.3712 84.9904 22.363 85.0013 22.3548 85.0122C22.3466 85.0232 22.3384 85.0342 22.3301 85.0452C22.3218 85.0563 22.3134 85.0674 22.3051 85.0786C22.2967 85.0897 22.2883 85.1009 22.2798 85.1122C22.2714 85.1235 22.2629 85.1348 22.2544 85.1462C22.2458 85.1575 22.2373 85.169 22.2287 85.1804C22.2201 85.1919 22.2114 85.2034 22.2027 85.215C22.194 85.2266 22.1853 85.2382 22.1766 85.2499C22.1678 85.2616 22.159 85.2733 22.1501 85.2851C22.1413 85.2969 22.1324 85.3088 22.1235 85.3206C22.1146 85.3325 22.1056 85.3445 22.0966 85.3565C22.0876 85.3685 22.0786 85.3805 22.0695 85.3926C22.0605 85.4047 22.0513 85.4169 22.0422 85.4291C22.033 85.4413 22.0238 85.4535 22.0146 85.4658C22.0054 85.4781 21.9961 85.4905 21.9868 85.5029C21.9775 85.5153 21.9682 85.5277 21.9588 85.5402C21.9494 85.5528 21.94 85.5653 21.9306 85.5779C21.9211 85.5905 21.9116 85.6032 21.9021 85.6159C21.8926 85.6286 21.883 85.6413 21.8734 85.6541C21.8638 85.667 21.8541 85.6798 21.8445 85.6927C21.8348 85.7056 21.8251 85.7186 21.8153 85.7316C21.8055 85.7446 21.7958 85.7576 21.7859 85.7707C21.7761 85.7839 21.7662 85.797 21.7563 85.8102C21.7464 85.8234 21.7365 85.8367 21.7265 85.85C21.7165 85.8633 21.7065 85.8766 21.6965 85.89C21.6864 85.9034 21.6763 85.9169 21.6662 85.9304C21.6561 85.9439 21.6459 85.9574 21.6357 85.971C21.6256 85.9846 21.6153 85.9982 21.6051 86.0119C21.5948 86.0256 21.5845 86.0393 21.5741 86.0531C21.5638 86.0669 21.5534 86.0808 21.543 86.0946C21.5326 86.1085 21.5222 86.1225 21.5117 86.1364C21.5012 86.1504 21.4907 86.1644 21.4801 86.1785C21.4696 86.1926 21.459 86.2067 21.4483 86.2209C21.4377 86.235 21.4271 86.2493 21.4164 86.2635C21.4057 86.2778 21.3949 86.2921 21.3842 86.3064C21.3734 86.3208 21.3626 86.3352 21.3517 86.3497C21.3409 86.3641 21.33 86.3786 21.3191 86.3931C21.3082 86.4077 21.2973 86.4223 21.2863 86.4369C21.2753 86.4516 21.2643 86.4662 21.2533 86.481C21.2422 86.4957 21.2311 86.5105 21.22 86.5253C21.2089 86.5401 21.1978 86.555 21.1866 86.5699C21.1754 86.5848 21.1642 86.5998 21.1529 86.6148C21.1417 86.6298 21.1304 86.6448 21.119 86.6599C21.1077 86.675 21.0964 86.6902 21.085 86.7054C21.0736 86.7205 21.0622 86.7358 21.0507 86.7511C21.0392 86.7663 21.0277 86.7817 21.0162 86.797C21.0047 86.8124 20.9931 86.8278 20.9815 86.8433C20.97 86.8587 20.9583 86.8742 20.9467 86.8898C20.935 86.9053 20.9233 86.9209 20.9116 86.9365C20.8999 86.9522 20.8881 86.9679 20.8763 86.9836C20.8645 86.9993 20.8527 87.0151 20.8408 87.0309C20.829 87.0467 20.8171 87.0626 20.8051 87.0785C20.7932 87.0944 20.7813 87.1103 20.7693 87.1263C20.7573 87.1423 20.7453 87.1583 20.7332 87.1744C20.7211 87.1905 20.7091 87.2066 20.6969 87.2227C20.6848 87.2389 20.6727 87.2551 20.6605 87.2714C20.6483 87.2876 20.6361 87.3039 20.6238 87.3202C20.6116 87.3366 20.5993 87.3529 20.587 87.3694C20.5747 87.3858 20.5623 87.4022 20.5499 87.4187C20.5376 87.4353 20.5251 87.4518 20.5127 87.4684C20.5003 87.485 20.4878 87.5016 20.4753 87.5183C20.4628 87.535 20.4502 87.5517 20.4377 87.5684C20.4251 87.5852 20.4125 87.602 20.3999 87.6188C20.3872 87.6357 20.3746 87.6526 20.3619 87.6695C20.3492 87.6864 20.3365 87.7034 20.3237 87.7204C20.3109 87.7374 20.2982 87.7544 20.2853 87.7715C20.2725 87.7886 20.2597 87.8058 20.2468 87.8229C20.2339 87.8401 20.221 87.8573 20.2081 87.8746C20.1951 87.8918 20.1821 87.9091 20.1691 87.9265C20.1561 87.9438 20.1431 87.9612 20.13 87.9786C20.117 87.996 20.1039 88.0135 20.0908 88.031C20.0776 88.0485 20.0645 88.066 20.0513 88.0836C20.0381 88.1012 20.0249 88.1188 20.0117 88.1365C19.9984 88.1541 19.9851 88.1718 19.9718 88.1895C19.9585 88.2073 19.9452 88.2251 19.9318 88.2429C19.9185 88.2607 19.9051 88.2786 19.8916 88.2965C19.8782 88.3144 19.8648 88.3323 19.8513 88.3503C19.8378 88.3682 19.8243 88.3863 19.8108 88.4043C19.7972 88.4224 19.7836 88.4405 19.77 88.4586C19.7564 88.4767 19.7428 88.4949 19.7292 88.5131C19.7155 88.5313 19.7018 88.5496 19.6881 88.5679C19.6744 88.5861 19.6606 88.6045 19.6469 88.6228C19.6331 88.6412 19.6193 88.6596 19.6055 88.678C19.5916 88.6965 19.5778 88.7149 19.5639 88.7335C19.55 88.752 19.5361 88.7705 19.5221 88.7891C19.5082 88.8077 19.4942 88.8263 19.4802 88.845C19.4662 88.8637 19.4522 88.8824 19.4381 88.9011C19.4241 88.9199 19.41 88.9386 19.3959 88.9575C19.3818 88.9763 19.3676 88.9951 19.3535 89.014C19.3393 89.0329 19.3251 89.0518 19.3109 89.0708C19.2967 89.0898 19.2824 89.1088 19.2681 89.1278C19.2539 89.1468 19.2396 89.1659 19.2252 89.185C19.2109 89.2041 19.1965 89.2233 19.1821 89.2425C19.1678 89.2616 19.1533 89.2809 19.1389 89.3001C19.1245 89.3194 19.11 89.3387 19.0955 89.358C19.081 89.3773 19.0665 89.3967 19.0519 89.4161C19.0374 89.4355 19.0228 89.4549 19.0082 89.4744C18.9936 89.4939 18.979 89.5134 18.9643 89.5329C18.9497 89.5524 18.935 89.572 18.9203 89.5916C18.9056 89.6112 18.8908 89.6309 18.8761 89.6506C18.8613 89.6702 18.8465 89.69 18.8317 89.7097C18.8169 89.7295 18.8021 89.7492 18.7872 89.7691C18.7723 89.7889 18.7574 89.8087 18.7425 89.8286C18.7276 89.8485 18.7127 89.8684 18.6977 89.8884C18.6827 89.9084 18.6677 89.9283 18.6527 89.9484C18.6377 89.9684 18.6226 89.9885 18.6076 90.0086C18.5925 90.0286 18.5774 90.0488 18.5623 90.0689C18.5472 90.0891 18.532 90.1093 18.5169 90.1295C18.5017 90.1497 18.4865 90.17 18.4713 90.1903C18.456 90.2106 18.4408 90.2309 18.4255 90.2513C18.4103 90.2717 18.395 90.292 18.3796 90.3125C18.3643 90.3329 18.349 90.3534 18.3336 90.3739C18.3182 90.3943 18.3028 90.4149 18.2874 90.4354C18.272 90.456 18.2566 90.4766 18.2411 90.4972C18.2256 90.5178 18.2101 90.5385 18.1946 90.5592C18.1791 90.5799 18.1636 90.6006 18.148 90.6213C18.1324 90.6421 18.1168 90.6629 18.1012 90.6837C18.0856 90.7045 18.07 90.7253 18.0543 90.7462C18.0387 90.7671 18.023 90.788 18.0073 90.8089C17.9916 90.8299 17.9758 90.8509 17.9601 90.8719C17.9443 90.8929 17.9286 90.9139 17.9128 90.935C17.897 90.956 17.8811 90.9771 17.8653 90.9983C17.8494 91.0194 17.8336 91.0406 17.8177 91.0617C17.8018 91.0829 17.7859 91.1042 17.7699 91.1254C17.754 91.1467 17.738 91.1679 17.722 91.1893C17.7061 91.2106 17.6901 91.2319 17.674 91.2533C17.658 91.2747 17.6419 91.2961 17.6259 91.3175C17.6098 91.3389 17.5937 91.3604 17.5776 91.3819C17.5615 91.4034 17.5453 91.4249 17.5292 91.4464C17.513 91.468 17.4968 91.4896 17.4806 91.5112C17.4644 91.5328 17.4482 91.5544 17.4319 91.5761C17.4157 91.5978 17.3994 91.6195 17.3831 91.6412C17.3668 91.6629 17.3505 91.6847 17.3341 91.7065C17.3178 91.7283 17.3014 91.7501 17.2851 91.7719C17.2687 91.7938 17.2523 91.8156 17.2358 91.8375C17.2194 91.8594 17.203 91.8814 17.1865 91.9033C17.17 91.9253 17.1536 91.9473 17.137 91.9693C17.1205 91.9913 17.104 92.0133 17.0874 92.0354C17.0709 92.0575 17.0543 92.0796 17.0377 92.1017C17.0211 92.1238 17.0045 92.146 16.9879 92.1681C16.9713 92.1903 16.9546 92.2125 16.9379 92.2348C16.9212 92.257 16.9046 92.2793 16.8878 92.3015C16.8711 92.3238 16.8544 92.3461 16.8376 92.3685C16.8209 92.3908 16.8041 92.4132 16.7873 92.4356C16.7705 92.458 16.7537 92.4804 16.7368 92.5029C16.72 92.5253 16.7031 92.5478 16.6863 92.5703C16.6694 92.5928 16.6525 92.6153 16.6356 92.6379C16.6187 92.6605 16.6017 92.683 16.5848 92.7056C16.5678 92.7282 16.5508 92.7509 16.5338 92.7735C16.5168 92.7962 16.4998 92.8189 16.4828 92.8416C16.4658 92.8643 16.4487 92.8871 16.4316 92.9098C16.4146 92.9326 16.3975 92.9554 16.3804 92.9782C16.3632 93.001 16.3461 93.0238 16.329 93.0467C16.3118 93.0696 16.2947 93.0925 16.2775 93.1154C16.2603 93.1383 16.2431 93.1612 16.2259 93.1842C16.2086 93.2071 16.1914 93.2301 16.1741 93.2531C16.1569 93.2762 16.1396 93.2992 16.1223 93.3223C16.105 93.3453 16.0877 93.3684 16.0703 93.3915C16.053 93.4146 16.0357 93.4378 16.0183 93.4609C16.0009 93.4841 15.9835 93.5073 15.9661 93.5305C15.9487 93.5537 15.9313 93.5769 15.9139 93.6002C15.8964 93.6234 15.879 93.6467 15.8615 93.67C15.844 93.6933 15.8265 93.7166 15.809 93.74C15.7915 93.7633 15.774 93.7867 15.7564 93.8101C15.7389 93.8335 15.7213 93.8569 15.7037 93.8803C15.6862 93.9038 15.6686 93.9272 15.6509 93.9507C15.6333 93.9742 15.6157 93.9977 15.598 94.0213C15.5804 94.0448 15.5627 94.0683 15.545 94.0919C15.5274 94.1155 15.5097 94.1391 15.492 94.1627C15.4742 94.1863 15.4565 94.21 15.4388 94.2336C15.421 94.2573 15.4032 94.281 15.3855 94.3047C15.3677 94.3284 15.3499 94.3521 15.3321 94.3759C15.3143 94.3997 15.2964 94.4234 15.2786 94.4472C15.2607 94.471 15.2429 94.4948 15.225 94.5187C15.2071 94.5425 15.1892 94.5664 15.1713 94.5902C15.1534 94.6141 15.1355 94.638 15.1175 94.6619C15.0996 94.6859 15.0816 94.7098 15.0637 94.7338C15.0457 94.7577 15.0277 94.7817 15.0097 94.8057C14.9917 94.8297 14.9737 94.8538 14.9556 94.8778C14.9376 94.9019 14.9196 94.9259 14.9015 94.95C14.8834 94.9741 14.8653 94.9982 14.8472 95.0223C14.8292 95.0464 14.811 95.0706 14.7929 95.0948C14.7748 95.1189 14.7567 95.1431 14.7385 95.1673C14.7204 95.1915 14.7022 95.2157 14.684 95.24C14.6658 95.2642 14.6476 95.2885 14.6294 95.3128C14.6112 95.3371 14.593 95.3614 14.5747 95.3857C14.5565 95.41 14.5382 95.4343 14.52 95.4587C14.5017 95.4831 14.4834 95.5074 14.4651 95.5318C14.4468 95.5562 14.4285 95.5806 14.4102 95.6051C14.3919 95.6295 14.3735 95.654 14.3552 95.6784C14.3368 95.7029 14.3184 95.7274 14.3001 95.7519C14.2817 95.7764 14.2633 95.8009 14.2449 95.8255C14.2265 95.85 14.2081 95.8746 14.1896 95.8992C14.1712 95.9237 14.1527 95.9483 14.1343 95.9729C14.1158 95.9976 14.0974 96.0222 14.0789 96.0468C14.0604 96.0715 14.0419 96.0961 14.0234 96.1208C14.0049 96.1455 13.9863 96.1702 13.9678 96.1949C13.9493 96.2196 13.9307 96.2444 13.9121 96.2691C13.8936 96.2939 13.875 96.3186 13.8564 96.3434C13.8378 96.3682 13.8192 96.393 13.8006 96.4178C13.782 96.4426 13.7634 96.4675 13.7447 96.4923C13.7261 96.5172 13.7075 96.542 13.6888 96.5669C13.6701 96.5918 13.6515 96.6167 13.6328 96.6416C13.6141 96.6665 13.5954 96.6915 13.5767 96.7164C13.558 96.7414 13.5393 96.7663 13.5205 96.7913C13.5018 96.8163 13.483 96.8413 13.4643 96.8663C13.4455 96.8913 13.4268 96.9163 13.408 96.9413C13.3892 96.9664 13.3704 96.9914 13.3516 97.0165C13.3328 97.0416 13.314 97.0666 13.2952 97.0917C13.2764 97.1168 13.2575 97.1419 13.2387 97.1671C13.2198 97.1922 13.201 97.2173 13.1821 97.2425C13.1633 97.2677 13.1444 97.2928 13.1255 97.318C13.1066 97.3432 13.0877 97.3684 13.0688 97.3936C13.0499 97.4188 13.031 97.444 13.012 97.4693C12.9931 97.4945 12.9742 97.5198 12.9552 97.545C12.9363 97.5703 12.9173 97.5956 12.8983 97.6209C12.8794 97.6462 12.8604 97.6715 12.8414 97.6968C12.8224 97.7221 12.8034 97.7475 12.7844 97.7728C12.7654 97.7982 12.7463 97.8235 12.7273 97.8489C12.7083 97.8743 12.6892 97.8997 12.6702 97.9251C12.6511 97.9505 12.6321 97.9759 12.613 98.0013C12.5939 98.0267 12.5749 98.0522 12.5558 98.0776C12.5367 98.1031 12.5176 98.1285 12.4985 98.154C12.4794 98.1795 12.4603 98.205 12.4411 98.2305C12.422 98.256 12.4029 98.2815 12.3838 98.307C12.3646 98.3325 12.3455 98.358 12.3263 98.3836C12.3071 98.4091 12.288 98.4347 12.2688 98.4603C12.2496 98.4858 12.2304 98.5114 12.2112 98.537C12.192 98.5626 12.1728 98.5882 12.1536 98.6138C12.1344 98.6394 12.1152 98.665 12.096 98.6907C12.0768 98.7163 12.0575 98.742 12.0383 98.7676C12.019 98.7933 11.9998 98.8189 11.9805 98.8446C11.9613 98.8703 11.942 98.896 11.9227 98.9217C11.9035 98.9474 11.8842 98.9731 11.8649 98.9988C11.8456 99.0245 11.8263 99.0503 11.807 99.076C11.7877 99.1017 11.7684 99.1275 11.7491 99.1532C11.7297 99.179 11.7104 99.2048 11.6911 99.2306C11.6717 99.2563 11.6524 99.2821 11.6331 99.3079C11.6137 99.3337 11.5943 99.3595 11.575 99.3853C11.5556 99.4112 11.5363 99.437 11.5169 99.4628C11.4975 99.4886 11.4781 99.5145 11.4587 99.5403C11.4393 99.5662 11.4199 99.5921 11.4005 99.6179C11.3811 99.6438 11.3617 99.6697 11.3423 99.6956C11.3229 99.7214 11.3035 99.7473 11.2841 99.7732C11.2646 99.7992 11.2452 99.8251 11.2258 99.851C11.2063 99.8769 11.1869 99.9028 11.1674 99.9288C11.148 99.9547 11.1285 99.9806 11.109 100.007C11.0896 100.033 11.0701 100.059 11.0506 100.084C11.0312 100.11 11.0117 100.136 10.9922 100.162C10.9727 100.188 10.9532 100.214 10.9337 100.24C10.9142 100.266 10.8947 100.292 10.8752 100.318C10.8557 100.344 10.8362 100.37 10.8167 100.396C10.7972 100.422 10.7776 100.448 10.7581 100.475C10.7386 100.501 10.719 100.527 10.6995 100.553C10.68 100.579 10.6604 100.605 10.6409 100.631C10.6213 100.657 10.6018 100.683 10.5822 100.709C10.5627 100.735 10.5431 100.761 10.5235 100.787C10.504 100.813 10.4844 100.839 10.4648 100.866C10.4453 100.892 10.4257 100.918 10.4061 100.944C10.3865 100.97 10.3669 100.996 10.3473 101.022C10.3277 101.048 10.3082 101.074 10.2886 101.101C10.269 101.127 10.2494 101.153 10.2297 101.179C10.2101 101.205 10.1905 101.231 10.1709 101.257C10.1513 101.284 10.1317 101.31 10.1121 101.336C10.0924 101.362 10.0728 101.388 10.0532 101.414C10.0336 101.441 10.0139 101.467 9.99431 101.493C9.97467 101.519 9.95504 101.545 9.9354 101.571C9.91576 101.598 9.89612 101.624 9.87647 101.65C9.85683 101.676 9.83718 101.702 9.81753 101.729C9.79788 101.755 9.77822 101.781 9.75857 101.807C9.73891 101.833 9.71925 101.86 9.69959 101.886C9.67993 101.912 9.66026 101.938 9.6406 101.965C9.62093 101.991 9.60126 102.017 9.58159 102.043C9.56192 102.069 9.54225 102.096 9.52257 102.122C9.5029 102.148 9.48322 102.174 9.46354 102.201C9.44387 102.227 9.42418 102.253 9.4045 102.279C9.38482 102.306 9.36514 102.332 9.34545 102.358C9.32576 102.384 9.30608 102.411 9.28639 102.437C9.2667 102.463 9.24701 102.489 9.22732 102.516C9.20763 102.542 9.18793 102.568 9.16824 102.594C9.14854 102.621 9.12885 102.647 9.10915 102.673C9.08945 102.699 9.06976 102.726 9.05006 102.752C9.03036 102.778 9.01066 102.804 8.99096 102.831C8.97126 102.857 8.95156 102.883 8.93186 102.91C8.91216 102.936 8.89245 102.962 8.87275 102.988C8.85305 103.015 8.83334 103.041 8.81364 103.067C8.79394 103.093 8.77423 103.12 8.75453 103.146C8.73482 103.172 8.71512 103.198 8.69541 103.225C8.67571 103.251 8.656 103.277 8.6363 103.304C8.6166 103.33 8.59689 103.356 8.57719 103.382C8.55748 103.409 8.53778 103.435 8.51807 103.461C8.49837 103.487 8.47867 103.514 8.45896 103.54C8.43926 103.566 8.41956 103.593 8.39985 103.619C8.38015 103.645 8.36045 103.671 8.34075 103.698C8.32105 103.724 8.30135 103.75 8.28165 103.776C8.26195 103.803 8.24225 103.829 8.22255 103.855C8.20286 103.882 8.18316 103.908 8.16347 103.934C8.14377 103.96 8.12408 103.987 8.10438 104.013C8.08469 104.039 8.065 104.065 8.04531 104.092C8.02562 104.118 8.00593 104.144 7.98624 104.17C7.96656 104.197 7.94687 104.223 7.92719 104.249C7.90751 104.275 7.88782 104.302 7.86814 104.328C7.84846 104.354 7.82878 104.38 7.80911 104.407C7.78943 104.433 7.76976 104.459 7.75009 104.485C7.73041 104.511 7.71074 104.538 7.69108 104.564C7.67141 104.59 7.65174 104.616 7.63208 104.643C7.61242 104.669 7.59276 104.695 7.5731 104.721C7.55344 104.747 7.53378 104.774 7.51413 104.8C7.49448 104.826 7.47483 104.852 7.45518 104.878C7.43553 104.905 7.41589 104.931 7.39625 104.957C7.3766 104.983 7.35697 105.009 7.33733 105.036C7.3177 105.062 7.29806 105.088 7.27843 105.114C7.2588 105.14 7.23918 105.166 7.21956 105.193C7.19993 105.219 7.18031 105.245 7.1607 105.271C7.14108 105.297 7.12147 105.323 7.10186 105.35C7.08225 105.376 7.06265 105.402 7.04305 105.428C7.02345 105.454 7.00385 105.48 6.98426 105.506C6.96466 105.532 6.94507 105.559 6.92549 105.585C6.9059 105.611 6.88632 105.637 6.86674 105.663C6.84717 105.689 6.82759 105.715 6.80802 105.741C6.78846 105.767 6.76889 105.793 6.74933 105.82C6.72977 105.846 6.71022 105.872 6.69067 105.898C6.67112 105.924 6.65157 105.95 6.63203 105.976C6.61249 106.002 6.59295 106.028 6.57342 106.054C6.55389 106.08 6.53436 106.106 6.51484 106.132C6.49532 106.158 6.4758 106.184 6.45629 106.21C6.43678 106.236 6.41727 106.262 6.39777 106.288C6.37827 106.314 6.35878 106.34 6.33929 106.366C6.3198 106.392 6.30031 106.418 6.28083 106.444C6.26135 106.47 6.24188 106.496 6.22241 106.522C6.20295 106.548 6.18348 106.574 6.16403 106.6C6.14457 106.626 6.12512 106.652 6.10568 106.678C6.08623 106.704 6.06679 106.73 6.04736 106.756C6.02793 106.781 6.00851 106.807 5.98909 106.833C5.96967 106.859 5.95025 106.885 5.93085 106.911C5.91144 106.937 5.89204 106.963 5.87265 106.988C5.85325 107.014 5.83386 107.04 5.81448 107.066C5.7951 107.092 5.77573 107.118 5.75636 107.144C5.737 107.169 5.71764 107.195 5.69828 107.221C5.67893 107.247 5.65958 107.273 5.64024 107.298C5.62091 107.324 5.60157 107.35 5.58225 107.376C5.56292 107.401 5.54361 107.427 5.5243 107.453C5.50499 107.479 5.48568 107.504 5.46639 107.53C5.44709 107.556 5.42781 107.582 5.40853 107.607C5.38925 107.633 5.36998 107.659 5.35071 107.684C5.33145 107.71 5.31219 107.736 5.29294 107.761C5.27369 107.787 5.25445 107.813 5.23522 107.838C5.21599 107.864 5.19676 107.89 5.17755 107.915C5.15833 107.941 5.13912 107.966 5.11992 107.992C5.10073 108.018 5.08153 108.043 5.06235 108.069C5.04317 108.094 5.02399 108.12 5.00483 108.146C4.98566 108.171 4.96651 108.197 4.94736 108.222C4.92821 108.248 4.90907 108.273 4.88994 108.299C4.87081 108.324 4.85169 108.35 4.83258 108.375C4.81347 108.401 4.79436 108.426 4.77527 108.452C4.75618 108.477 4.73709 108.503 4.71802 108.528C4.69894 108.553 4.67987 108.579 4.66082 108.604C4.64176 108.63 4.62271 108.655 4.60368 108.68C4.58464 108.706 4.56561 108.731 4.54659 108.757C4.52758 108.782 4.50857 108.807 4.48957 108.833C4.47057 108.858 4.45158 108.883 4.4326 108.909C4.41362 108.934 4.39466 108.959 4.3757 108.984C4.35674 109.01 4.33779 109.035 4.31885 109.06C4.29992 109.085 4.28099 109.111 4.26207 109.136C4.24316 109.161 4.22425 109.186 4.20535 109.212C4.18646 109.237 4.16757 109.262 4.1487 109.287C4.12982 109.312 4.11096 109.337 4.09211 109.363C4.07325 109.388 4.05441 109.413 4.03558 109.438C4.01675 109.463 3.99793 109.488 3.97912 109.513C3.96031 109.538 3.94151 109.563 3.92273 109.588C3.90394 109.613 3.88517 109.638 3.8664 109.663C3.84764 109.688 3.82889 109.713 3.81015 109.738C3.79141 109.763 3.77268 109.788 3.75396 109.813C3.73524 109.838 3.71654 109.863 3.69784 109.888C3.67915 109.913 3.66047 109.938 3.6418 109.963C3.62313 109.988 3.60447 110.013 3.58582 110.038C3.56718 110.062 3.54854 110.087 3.52992 110.112C3.5113 110.137 3.49269 110.162 3.4741 110.187C3.4555 110.211 3.43691 110.236 3.41834 110.261C3.39977 110.286 3.38121 110.31 3.36266 110.335C3.34412 110.36 3.32558 110.385 3.30706 110.409C3.28854 110.434 3.27003 110.459 3.25154 110.483C3.23304 110.508 3.21456 110.533 3.19609 110.557C3.17762 110.582 3.15917 110.606 3.14072 110.631C3.12228 110.656 3.10385 110.68 3.08543 110.705C3.06702 110.729 3.04861 110.754 3.03022 110.778C3.01184 110.803 2.99346 110.827 2.9751 110.852C2.95674 110.876 2.93839 110.901 2.92005 110.925C2.90172 110.95 2.8834 110.974 2.86509 110.999C2.84678 111.023 2.82849 111.047 2.81021 111.072C2.79193 111.096 2.77367 111.12 2.75541 111.145C2.73716 111.169 2.71893 111.193 2.70071 111.218C2.68248 111.242 2.66427 111.266 2.64608 111.291C2.62789 111.315 2.60971 111.339 2.59154 111.363C2.57338 111.387 2.55523 111.412 2.5371 111.436C2.51896 111.46 2.50084 111.484 2.48274 111.508C2.46463 111.532 2.44654 111.557 2.42846 111.581C2.41039 111.605 2.39233 111.629 2.37428 111.653C2.35624 111.677 2.33821 111.701 2.32019 111.725C2.30218 111.749 2.28418 111.773 2.2662 111.797C2.24821 111.821 2.23025 111.845 2.21229 111.869C2.19434 111.893 2.1764 111.917 2.15848 111.941C2.14056 111.965 2.12265 111.988 2.10476 112.012C2.08687 112.036 2.069 112.06 2.05114 112.084C2.03329 112.108 2.01544 112.131 1.99762 112.155C1.97979 112.179 1.96198 112.203 1.94419 112.226C1.9264 112.25 1.90862 112.274 1.89086 112.298C1.8731 112.321 1.85535 112.345 1.83763 112.368C1.8199 112.392 1.80219 112.416 1.78449 112.439C1.7668 112.463 1.74912 112.486 1.73146 112.51C1.7138 112.534 1.69616 112.557 1.67853 112.581C1.6609 112.604 1.64329 112.628 1.6257 112.651C1.60811 112.675 1.59053 112.698 1.57297 112.721C1.55542 112.745 1.53787 112.768 1.52035 112.792C1.50283 112.815 1.48532 112.838 1.46783 112.862C1.45034 112.885 1.43287 112.908 1.41542 112.931C1.39796 112.955 1.38053 112.978 1.36311 113.001C1.34569 113.024 1.32829 113.048 1.31091 113.071C1.29353 113.094 1.27616 113.117 1.25882 113.14C1.24147 113.163 1.22414 113.186 1.20683 113.21C1.18952 113.233 1.17223 113.256 1.15496 113.279C1.13769 113.302 1.12043 113.325 1.10319 113.348C1.08596 113.371 1.06874 113.394 1.05154 113.417C1.03434 113.44 1.01716 113.462 1 113.485L5 116.485ZM114 218.485V179.985H109V218.485H114ZM111.5 215.985C110.292 215.985 108.583 215.578 106.387 214.671C104.229 213.779 101.775 212.481 99.1317 210.879C93.8453 207.675 87.9845 203.372 82.4884 199.025C77.0023 194.685 71.9281 190.341 68.2224 187.078C66.3707 185.447 64.8633 184.089 63.8202 183.14C63.2987 182.666 62.8934 182.293 62.6193 182.041C62.4823 181.914 62.378 181.818 62.3085 181.753C62.2737 181.721 62.2476 181.697 62.2304 181.681C62.2218 181.673 62.2155 181.667 62.2113 181.663C62.2093 181.661 62.2078 181.66 62.2069 181.659C62.2064 181.658 62.2061 181.658 62.2059 181.658C62.2058 181.658 62.2058 181.658 60.5 183.485C58.7942 185.313 58.7945 185.313 58.795 185.314C58.7953 185.314 58.7959 185.315 58.7966 185.315C58.7979 185.316 58.7998 185.318 58.8023 185.321C58.8073 185.325 58.8146 185.332 58.824 185.341C58.843 185.358 58.8709 185.384 58.9075 185.418C58.9807 185.486 59.0886 185.586 59.2295 185.716C59.5113 185.976 59.9249 186.356 60.4552 186.838C61.5156 187.803 63.0434 189.18 64.9182 190.83C68.6656 194.13 73.8102 198.535 79.3866 202.946C84.953 207.349 90.9984 211.796 96.5402 215.155C99.3105 216.834 102.002 218.269 104.478 219.292C106.917 220.299 109.333 220.985 111.5 220.985V215.985ZM60.5 183.485C61.9374 181.44 61.9374 181.44 61.9374 181.44C61.9371 181.44 61.9369 181.44 61.9365 181.439C61.9357 181.439 61.9343 181.438 61.9323 181.436C61.9284 181.434 61.9222 181.429 61.9139 181.423C61.8973 181.412 61.8719 181.394 61.8381 181.37C61.7704 181.322 61.6689 181.25 61.5359 181.155C61.2699 180.965 60.8777 180.684 60.3774 180.322C59.3768 179.596 57.9444 178.545 56.2245 177.247C52.7816 174.65 48.2006 171.074 43.628 167.151C39.0423 163.215 34.528 158.984 31.1809 155.071C29.5064 153.114 28.1743 151.294 27.2725 149.679C26.3488 148.025 26 146.804 26 145.985H21C21 148.042 21.8074 150.148 22.9072 152.117C24.0288 154.126 25.5873 156.224 27.3816 158.321C30.972 162.518 35.7077 166.943 40.372 170.945C45.0494 174.959 49.7184 178.602 53.213 181.239C54.9618 182.558 56.4201 183.628 57.4429 184.37C57.9543 184.741 58.3571 185.029 58.633 185.226C58.771 185.324 58.8773 185.4 58.9497 185.451C58.9858 185.477 59.0135 185.496 59.0324 185.51C59.0419 185.516 59.0492 185.521 59.0542 185.525C59.0567 185.527 59.0587 185.528 59.0601 185.529C59.0608 185.53 59.0614 185.53 59.0618 185.53C59.0623 185.531 59.0626 185.531 60.5 183.485ZM62.2765 136.376C54.4844 128.506 45.4344 123.437 38.3801 120.34C34.8445 118.788 31.7872 117.72 29.6045 117.039C28.5124 116.698 27.6375 116.453 27.0289 116.292C26.7245 116.211 26.4866 116.151 26.3212 116.111C26.2385 116.091 26.174 116.075 26.1283 116.065C26.1055 116.059 26.0874 116.055 26.0741 116.052C26.0675 116.051 26.062 116.049 26.0578 116.048C26.0557 116.048 26.0539 116.047 26.0524 116.047C26.0516 116.047 26.0507 116.047 26.0503 116.047C26.0495 116.046 26.0488 116.046 25.5 118.485C24.9512 120.924 24.9506 120.924 24.9501 120.924C24.95 120.924 24.9496 120.924 24.9495 120.924C24.9492 120.924 24.9492 120.924 24.9495 120.924C24.9501 120.924 24.952 120.925 24.955 120.925C24.9611 120.927 24.9719 120.929 24.9873 120.933C25.0183 120.94 25.0679 120.952 25.1353 120.968C25.2703 121.001 25.4767 121.053 25.7485 121.125C26.2922 121.269 27.0969 121.494 28.1143 121.812C30.1503 122.447 33.0305 123.452 36.3699 124.918C43.0656 127.858 51.5156 132.614 58.7235 139.894L62.2765 136.376ZM63 183.485V138.135H58V183.485H63ZM196.138 145.668C196.007 146.045 195.464 146.98 194.294 148.53C193.192 149.991 191.709 151.776 189.956 153.779C186.455 157.78 181.974 162.544 177.538 167.132C173.107 171.716 168.742 176.103 165.483 179.346C163.854 180.967 162.503 182.301 161.559 183.229C161.088 183.693 160.718 184.056 160.466 184.302C160.34 184.426 160.244 184.52 160.179 184.583C160.147 184.615 160.123 184.638 160.106 184.654C160.098 184.662 160.092 184.668 160.088 184.672C160.086 184.674 160.084 184.675 160.084 184.676C160.083 184.677 160.083 184.677 160.082 184.677C160.082 184.678 160.082 184.678 161.827 186.468C163.573 188.258 163.573 188.258 163.573 188.257C163.573 188.257 163.574 188.257 163.574 188.256C163.575 188.255 163.577 188.253 163.579 188.251C163.584 188.247 163.59 188.241 163.598 188.233C163.615 188.216 163.64 188.192 163.673 188.159C163.739 188.095 163.837 188 163.964 187.875C164.218 187.626 164.591 187.261 165.066 186.794C166.015 185.86 167.374 184.519 169.01 182.89C172.283 179.633 176.672 175.222 181.133 170.607C185.589 165.998 190.137 161.165 193.719 157.071C195.508 155.027 197.08 153.14 198.286 151.541C199.424 150.033 200.441 148.521 200.862 147.303L196.138 145.668ZM160.173 184.594C150.68 192.973 141.581 200.879 133.195 206.695C124.719 212.574 117.426 215.985 111.5 215.985V220.985C119.074 220.985 127.469 216.752 136.045 210.804C144.71 204.793 154.024 196.69 163.482 188.342L160.173 184.594ZM111.5 182.485C114.012 182.485 116.657 181.674 119.261 180.449C121.887 179.213 124.628 177.48 127.375 175.46C132.869 171.422 138.592 166.082 143.75 160.808C148.919 155.523 153.575 150.245 156.935 146.294C158.616 144.317 159.977 142.668 160.918 141.512C161.389 140.934 161.755 140.478 162.004 140.166C162.129 140.01 162.224 139.89 162.289 139.808C162.321 139.768 162.346 139.736 162.363 139.715C162.371 139.704 162.378 139.696 162.382 139.69C162.385 139.688 162.386 139.685 162.388 139.684C162.388 139.683 162.389 139.682 162.389 139.682C162.39 139.681 162.39 139.681 160.425 138.135C158.46 136.589 158.46 136.589 158.46 136.589C158.46 136.59 158.46 136.59 158.459 136.59C158.459 136.591 158.457 136.593 158.456 136.595C158.452 136.6 158.447 136.607 158.439 136.616C158.424 136.635 158.402 136.664 158.371 136.702C158.31 136.779 158.219 136.894 158.099 137.044C157.858 137.345 157.501 137.789 157.04 138.355C156.118 139.488 154.781 141.108 153.126 143.055C149.813 146.95 145.238 152.135 140.175 157.312C135.101 162.501 129.594 167.624 124.414 171.432C121.824 173.336 119.368 174.872 117.131 175.925C114.872 176.989 112.988 177.485 111.5 177.485V182.485ZM161.939 140.125C172.068 132.42 181.437 127.217 188.259 123.946C191.669 122.311 194.44 121.159 196.347 120.42C197.301 120.051 198.038 119.785 198.531 119.613C198.778 119.527 198.963 119.464 199.084 119.424C199.145 119.404 199.189 119.39 199.217 119.381C199.231 119.376 199.24 119.373 199.246 119.372C199.248 119.371 199.25 119.37 199.251 119.37C199.251 119.37 199.251 119.37 199.251 119.37C199.251 119.37 199.251 119.37 199.25 119.37C199.25 119.37 199.25 119.37 198.5 116.985C197.75 114.6 197.75 114.601 197.749 114.601C197.749 114.601 197.748 114.601 197.747 114.601C197.746 114.602 197.745 114.602 197.743 114.603C197.739 114.604 197.734 114.605 197.729 114.607C197.717 114.611 197.702 114.616 197.682 114.622C197.642 114.635 197.585 114.654 197.513 114.678C197.367 114.726 197.157 114.797 196.884 114.892C196.34 115.082 195.55 115.367 194.541 115.758C192.524 116.539 189.634 117.741 186.097 119.437C179.026 122.828 169.357 128.201 158.912 136.145L161.939 140.125ZM161.827 186.468C164.326 186.395 164.326 186.395 164.326 186.395C164.326 186.395 164.326 186.394 164.326 186.394C164.326 186.39 164.326 186.395 164.326 186.39C164.326 186.387 164.326 186.387 164.326 186.383C164.326 186.379 164.326 186.379 164.326 186.374C164.322 186.231 164.328 186.467 164.324 186.31C164.32 186.193 164.322 186.231 164.317 186.06C164.311 185.871 164.3 185.482 164.289 185.093C164.264 184.255 164.228 183.021 164.184 181.498C164.096 178.443 163.972 174.168 163.831 169.307C163.548 159.583 163.198 147.5 162.924 138.063L157.926 138.208C158.2 147.645 158.551 159.728 158.833 169.452C158.974 174.316 159.098 178.585 159.186 181.643C159.231 183.175 159.266 184.391 159.291 185.238C159.304 185.691 159.311 185.953 159.319 186.205C159.324 186.391 159.318 186.178 159.323 186.35C159.324 186.388 159.325 186.431 159.326 186.455C159.326 186.459 159.326 186.462 159.326 186.465C159.326 186.469 159.326 186.472 159.327 186.475C159.327 186.478 159.327 186.481 159.327 186.484C159.327 186.487 159.327 186.49 159.327 186.492C159.327 186.495 159.327 186.497 159.327 186.5C159.327 186.502 159.327 186.505 159.327 186.507C159.328 186.509 159.328 186.511 159.328 186.513C159.328 186.515 159.328 186.517 159.328 186.519C159.329 186.548 159.327 186.5 159.328 186.528C159.328 186.531 159.328 186.533 159.328 186.535C159.328 186.537 159.328 186.538 159.328 186.539C159.328 186.539 159.328 186.54 159.328 186.54C159.328 186.54 159.328 186.54 161.827 186.468ZM195.783 81.7326L160.879 46.2326L157.314 49.738L192.217 85.2381L195.783 81.7326ZM160.879 46.2326L137.283 22.2326L133.717 25.7381L157.314 49.738L160.879 46.2326ZM161.021 49.5812L197.924 5.08121L194.076 1.88948L157.172 46.3895L161.021 49.5812ZM83.7177 22.2322L60.1111 46.2322L63.6758 49.7384L87.2823 25.7384L83.7177 22.2322ZM60.1111 46.2322L23.7177 83.2322L27.2823 86.7384L63.6758 49.7384L60.1111 46.2322ZM63.7549 46.3165L23.8615 1.81655L20.1385 5.15413L60.032 49.6541L63.7549 46.3165ZM69.8219 89.979C77.9094 90.5566 82.8121 95.4743 86.1533 102.963C89.5523 110.582 91.0999 120.391 92.528 129.858L97.472 129.112C96.0679 119.804 94.4468 109.28 90.7195 100.926C86.9343 92.4419 80.7531 85.747 70.1781 84.9917L69.8219 89.979ZM4.58958 116.915C23.0006 101.748 35.2872 94.0931 53.8769 91.2585L53.1231 86.3156C33.1963 89.3541 20.0585 97.6935 1.41042 113.056L4.58958 116.915ZM53.8769 91.2585C58.7352 90.5177 64.0513 90.103 70.0493 89.9848L69.9507 84.9858C63.7834 85.1073 58.2428 85.535 53.1231 86.3156L53.8769 91.2585ZM149.357 89.9812C155.643 90.3404 161.338 91.026 166.549 91.9807L167.451 87.0626C162.021 86.0678 156.118 85.3594 149.643 84.9894L149.357 89.9812ZM166.549 91.9807C189.828 96.2456 203.682 105.919 217.481 116.471L220.519 112.499C206.516 101.792 191.9 91.542 167.451 87.0626L166.549 91.9807ZM112.714 167.171C119.253 163.538 122.541 156.417 124.544 148.606L119.701 147.364C117.78 154.851 114.947 160.21 110.286 162.8L112.714 167.171ZM124.544 148.606C126.033 142.8 126.899 136.25 127.725 129.803L122.766 129.168C121.933 135.667 121.1 141.908 119.701 147.364L124.544 148.606ZM96.1548 148.693C98.5188 156.704 102.438 163.403 110.417 167.238L112.583 162.732C106.358 159.739 103.095 154.545 100.95 147.278L96.1548 148.693ZM122.122 145.485H98.5526V150.485H122.122V145.485ZM5 116.485L27.5 86.4853L23.5 83.4853L1 113.485L5 116.485ZM19.5405 3.03704C13.57 35.7923 17.0088 53.7755 21.3662 76.5537L26.2772 75.6142C21.9584 53.0382 18.655 35.7777 24.4595 3.93365L19.5405 3.03704ZM21.3662 76.5537C21.916 79.4276 22.4793 82.3721 23.041 85.4361L27.959 84.5345C27.3933 81.4486 26.8265 78.4856 26.2772 75.6142L21.3662 76.5537ZM51.1756 89.7074C55.9681 101.811 65.8514 108.039 74.5817 113.607L77.2707 109.392C68.3757 103.718 59.9396 98.2598 55.8244 87.8667L51.1756 89.7074ZM74.5817 113.607C82.5051 118.662 89.3302 123.096 92.7263 130.525L97.2737 128.446C93.1598 119.447 84.9377 114.283 77.2707 109.392L74.5817 113.607ZM92.5279 129.858L92.6001 130.336L97.5442 129.591L97.4721 129.113L92.5279 129.858ZM92.6001 130.336C93.5932 136.923 94.5359 143.207 96.1548 148.693L100.95 147.278C99.4481 142.187 98.5513 136.27 97.5442 129.591L92.6001 130.336ZM127.52 130.522C132.013 120.665 140.162 116.524 148.621 112.302L146.388 107.829C138.05 111.99 128.283 116.793 122.971 128.449L127.52 130.522ZM148.621 112.302C157.648 107.796 167.421 103.056 169.47 89.9065L164.53 89.1368C162.925 99.4357 155.697 103.182 146.388 107.829L148.621 112.302ZM111.5 177.485C106.929 177.485 102.232 175.18 97.0174 170.995C91.8152 166.82 86.4544 161.074 80.5171 154.702L76.8588 158.11C82.7217 164.403 88.345 170.447 93.8879 174.895C99.4184 179.333 105.227 182.485 111.5 182.485V177.485ZM80.5171 154.702C74.9185 148.692 68.858 142.185 62.1554 136.262L58.8446 140.009C65.336 145.745 71.2355 152.074 76.8588 158.11L80.5171 154.702ZM92.528 129.858C92.552 130.018 92.5761 130.177 92.6001 130.336L97.5442 129.591C97.5202 129.432 97.4961 129.272 97.472 129.112L92.528 129.858ZM149.353 84.9896C144.129 85.297 139.894 86.9343 136.497 89.6476C133.129 92.3376 130.729 95.9684 128.951 100.049C125.438 108.113 124.129 118.51 122.878 128.292L127.837 128.927C129.116 118.925 130.366 109.319 133.535 102.047C135.098 98.4595 137.07 95.5888 139.617 93.5544C142.135 91.5433 145.358 90.2333 149.647 89.981L149.353 84.9896ZM122.878 128.292C122.84 128.584 122.803 128.876 122.766 129.168L127.725 129.803C127.763 129.511 127.8 129.219 127.837 128.927L122.878 128.292ZM127.725 129.803L127.837 128.927L122.878 128.292L122.766 129.168L127.725 129.803ZM164.326 186.395L162.924 138.063L157.926 138.208L159.328 186.54L164.326 186.395Z" fill="#222C41"/>
<path d="M165.5 86.92C160.351 85.9842 145.5 84.5 142 86.5C138.5 88.5 129.846 91 126.27 109.5C122.693 128 122.5 139 120 145.5H100.5C99.0174 140.516 98.0727 134.299 97.1229 128.049L97.0698 127.699L97 127.24C135 102 111 75.5 158 50.5C183 70.5 205.5 102 205.5 102C186.5 89.5 172.5 88.1922 165.5 86.92Z" fill="#29D0C8"/>
</svg>
