<svg width="518" height="518" viewBox="0 0 518 518" fill="none" xmlns="http://www.w3.org/2000/svg">
<path d="M317.074 52.8618H198.556L142.599 109.886L56.3333 197.8L3 269.081C46.922 232.811 77.0545 213.81 122.704 206.833C134.53 205.025 147.397 204.025 161.815 203.74C206.052 206.907 214.361 258.923 221.074 303.533L221.245 304.67C223.616 320.43 225.796 334.924 229.495 347.49H285.364C288.788 334.109 290.801 318.913 292.767 303.533L293.033 301.452C299.03 254.444 305.16 206.399 350.259 203.74C365.384 204.606 379.129 206.262 391.741 208.578C448.307 218.967 482.05 242.635 515 267.893L455.741 194.236L373.007 109.886L317.074 52.8618Z" fill="#40E9DB"/>
<path d="M460.481 4.15313C390.999 1.52042 362.169 16.3144 317.074 52.8618L373.007 109.886L460.481 4.15313Z" fill="white"/>
<path d="M455.741 194.236C472.333 141.963 478.259 43.3576 460.481 4.15313L373.007 109.886L455.741 194.236Z" fill="#BBBBBB"/>
<path d="M455.741 194.236C472.333 141.963 478.259 43.3576 460.481 4.15313L373.007 109.886L455.741 194.236Z" fill="#29D0C8"/>
<path d="M391.741 208.578C379.129 206.262 365.384 204.606 350.259 203.74C305.16 206.399 299.03 254.444 293.033 301.452L292.767 303.533C304.387 277.975 325.622 267.351 345.528 257.391C367.261 246.517 387.411 236.436 391.741 208.578Z" fill="#01202A"/>
<path d="M221.074 303.533C214.361 258.923 206.052 206.907 161.815 203.74C147.397 204.025 134.53 205.025 122.704 206.833C133.261 233.559 154.973 247.442 175.862 260.799C194.34 272.613 212.173 284.016 221.074 303.533Z" fill="#BBBBBB"/>
<path d="M221.074 303.533C214.361 258.923 206.052 206.907 161.815 203.74C147.397 204.025 134.53 205.025 122.704 206.833C133.261 233.559 154.973 247.442 175.862 260.799C194.34 272.613 212.173 284.016 221.074 303.533Z" fill="#01202A"/>
<path d="M198.556 52.8618C144.517 7.92894 111.163 -0.55851 48.037 4.15313L142.599 109.886L198.556 52.8618Z" fill="#BBBBBB"/>
<path d="M198.556 52.8618C144.517 7.92894 111.163 -0.55851 48.037 4.15313L142.599 109.886L198.556 52.8618Z" fill="white"/>
<path d="M56.3333 197.8L142.599 109.886L48.037 4.15313C34.0815 80.8982 42.0722 122.768 52.3551 176.65C53.6577 183.475 54.9971 190.493 56.3333 197.8Z" fill="#BBBBBB"/>
<path d="M56.3333 197.8L142.599 109.886L48.037 4.15313C34.0815 80.8982 42.0722 122.768 52.3551 176.65C53.6577 183.475 54.9971 190.493 56.3333 197.8Z" fill="#29D0C8"/>
<path d="M466.407 273.833C466.407 273.833 484.185 261.953 515 267.893C482.05 242.635 448.307 218.967 391.741 208.578C387.411 236.436 367.261 246.517 345.528 257.391C325.622 267.351 304.387 277.975 292.767 303.533C290.801 318.913 288.788 334.109 285.364 347.49C280.714 365.664 273.46 380.49 260.185 387.882C243.351 379.77 234.838 365.641 229.495 347.49C225.796 334.924 223.616 320.43 221.245 304.67L221.074 303.533C212.173 284.016 194.34 272.613 175.862 260.799C154.973 247.442 133.261 233.559 122.704 206.833C77.0545 213.81 46.922 232.811 3 269.081C18.4153 268.281 56.3333 277.397 56.3333 277.397C56.3333 277.397 103.741 288.089 139.296 324.085C154.934 337.937 169.108 353.187 182.409 367.497C210.379 397.591 234.481 423.523 260.185 423.523C298.111 423.523 376.156 324.085 376.156 324.085C424.926 286.901 466.407 273.833 466.407 273.833Z" fill="#BBBBBB"/>
<path d="M466.407 273.833C466.407 273.833 484.185 261.953 515 267.893C482.05 242.635 448.307 218.967 391.741 208.578C387.411 236.436 367.261 246.517 345.528 257.391C325.622 267.351 304.387 277.975 292.767 303.533C290.801 318.913 288.788 334.109 285.364 347.49C280.714 365.664 273.46 380.49 260.185 387.882C243.351 379.77 234.838 365.641 229.495 347.49C225.796 334.924 223.616 320.43 221.245 304.67L221.074 303.533C212.173 284.016 194.34 272.613 175.862 260.799C154.973 247.442 133.261 233.559 122.704 206.833C77.0545 213.81 46.922 232.811 3 269.081C18.4153 268.281 56.3333 277.397 56.3333 277.397C56.3333 277.397 103.741 288.089 139.296 324.085C154.934 337.937 169.108 353.187 182.409 367.497C210.379 397.591 234.481 423.523 260.185 423.523C298.111 423.523 376.156 324.085 376.156 324.085C424.926 286.901 466.407 273.833 466.407 273.833Z" fill="white"/>
<path d="M466.407 343.926V273.833C466.407 273.833 424.926 286.901 376.156 324.085L379.48 438.925C379.48 438.925 461.171 359.09 466.407 343.926Z" fill="#BBBBBB"/>
<path d="M466.407 343.926V273.833C466.407 273.833 424.926 286.901 376.156 324.085L379.48 438.925C379.48 438.925 461.171 359.09 466.407 343.926Z" fill="#29D0C8"/>
<path d="M260.185 423.523V515C292.185 515 334.56 478.671 379.48 438.925L376.156 324.085C376.156 324.085 298.111 423.523 260.185 423.523Z" fill="#BBBBBB"/>
<path d="M260.185 423.523V515C292.185 515 334.56 478.671 379.48 438.925L376.156 324.085C376.156 324.085 298.111 423.523 260.185 423.523Z" fill="#29D0C8"/>
<path d="M260.185 515V423.523C234.481 423.523 210.379 397.591 182.409 367.497C169.108 353.187 154.934 337.937 139.296 324.085V431.839C139.296 431.839 228.185 515 260.185 515Z" fill="#BBBBBB"/>
<path d="M260.185 515V423.523C234.481 423.523 210.379 397.591 182.409 367.497C169.108 353.187 154.934 337.937 139.296 324.085V431.839C139.296 431.839 228.185 515 260.185 515Z" fill="#40E9DB"/>
<path d="M56.3333 277.397L51.5926 342.738C51.5926 370.062 139.296 431.839 139.296 431.839V324.085C103.741 288.089 56.3333 277.397 56.3333 277.397Z" fill="#BBBBBB"/>
<path d="M56.3333 277.397L51.5926 342.738C51.5926 370.062 139.296 431.839 139.296 431.839V324.085C103.741 288.089 56.3333 277.397 56.3333 277.397Z" fill="#40E9DB"/>
<path d="M260.185 387.882C273.46 380.49 280.714 365.664 285.364 347.49H229.495C234.838 365.641 243.351 379.77 260.185 387.882Z" fill="#BBBBBB"/>
<path d="M260.185 387.882C273.46 380.49 280.714 365.664 285.364 347.49H229.495C234.838 365.641 243.351 379.77 260.185 387.882Z" fill="#29D0C8"/>
<path d="M48.037 4.15313L47.851 1.66006C46.7157 1.7448 45.781 2.58581 45.5774 3.70586L48.037 4.15313ZM460.481 4.15313L462.758 3.12066C462.367 2.25822 461.522 1.69078 460.576 1.65492L460.481 4.15313ZM515 267.893L514.527 270.347C515.557 270.546 516.601 270.081 517.142 269.182C517.683 268.283 517.605 267.143 516.948 266.326L515 267.893ZM466.407 343.926L468.77 344.742C468.861 344.479 468.907 344.203 468.907 343.926H466.407ZM51.5926 342.738L49.0991 342.557C49.0948 342.617 49.0926 342.677 49.0926 342.738H51.5926ZM3 269.081L0.998284 267.583C0.417303 268.359 0.337802 269.402 0.794312 270.257C1.25082 271.113 2.16097 271.627 3.12946 271.577L3 269.081ZM379.48 438.925L381.136 440.798C381.167 440.77 381.197 440.742 381.227 440.713L379.48 438.925ZM376.156 324.085L374.64 322.097C374.471 322.226 374.32 322.375 374.189 322.542L376.156 324.085ZM161.815 203.74L161.993 201.246C161.918 201.241 161.841 201.239 161.765 201.24L161.815 203.74ZM260.185 387.882L259.1 390.134C259.832 390.487 260.691 390.462 261.402 390.066L260.185 387.882ZM350.259 203.74L350.402 201.244C350.306 201.238 350.209 201.238 350.112 201.244L350.259 203.74ZM142.599 109.886L144.384 111.637L144.384 111.637L142.599 109.886ZM221.074 303.533L223.546 303.161L221.074 303.533ZM122.704 206.833L122.326 204.361L122.704 206.833ZM391.741 208.578L392.192 206.119L392.192 206.119L391.741 208.578ZM285.364 347.49L287.786 348.109L285.364 347.49ZM52.3551 176.65L49.8995 177.118L49.8995 177.118L52.3551 176.65ZM175.862 260.799L174.515 262.905L174.515 262.905L175.862 260.799ZM221.245 304.67L223.717 304.298L223.717 304.298L221.245 304.67ZM345.528 257.391L344.41 255.155L344.41 255.155L345.528 257.391ZM182.409 367.497L184.24 365.795L184.24 365.795L182.409 367.497ZM293.033 301.452L295.512 301.769L295.512 301.769L293.033 301.452ZM48.2231 6.64619C79.6579 4.29993 103.415 5.26453 125.961 12.278C148.507 19.2909 170.063 32.422 196.957 54.7841L200.154 50.9395C173.009 28.3687 150.87 14.7897 127.447 7.5036C104.025 0.218001 79.5417 -0.705307 47.851 1.66006L48.2231 6.64619ZM198.556 55.3618H317.074V50.3618H198.556V55.3618ZM318.648 54.804C341.142 36.5739 359.364 23.9522 380.497 16.1606C401.611 8.376 425.832 5.34204 460.387 6.65134L460.576 1.65492C425.649 0.33151 400.713 3.37817 378.768 11.4693C356.842 19.5533 338.101 32.6023 315.5 50.9196L318.648 54.804ZM458.205 5.18559C462.49 14.6358 465.415 27.8472 467.089 43.311C468.758 58.7377 469.165 76.2478 468.502 94.2015C467.174 130.14 461.566 167.622 453.358 193.479L458.124 194.992C466.508 168.577 472.16 130.619 473.498 94.3861C474.168 76.2538 473.761 58.4947 472.06 42.7731C470.362 27.0886 467.362 13.2727 462.758 3.12066L458.205 5.18559ZM453.793 195.803L513.052 269.46L516.948 266.326L457.689 192.669L453.793 195.803ZM515.473 265.438C499.659 262.389 487.127 263.904 478.5 266.221C474.191 267.378 470.864 268.732 468.594 269.811C467.458 270.351 466.587 270.822 465.988 271.165C465.689 271.337 465.457 271.477 465.295 271.577C465.214 271.627 465.151 271.668 465.105 271.698C465.081 271.713 465.063 271.725 465.048 271.734C465.041 271.739 465.035 271.743 465.03 271.746C465.028 271.748 465.025 271.749 465.023 271.751C465.022 271.751 465.021 271.752 465.021 271.753C465.019 271.753 465.018 271.754 466.407 273.833C467.796 275.911 467.795 275.912 467.795 275.913C467.794 275.913 467.793 275.913 467.793 275.914C467.792 275.914 467.792 275.915 467.791 275.915C467.791 275.915 467.791 275.915 467.793 275.914C467.795 275.912 467.803 275.907 467.814 275.9C467.837 275.885 467.877 275.86 467.934 275.824C468.047 275.754 468.228 275.644 468.475 275.503C468.969 275.219 469.727 274.809 470.74 274.327C472.766 273.364 475.809 272.12 479.796 271.05C487.762 268.911 499.526 267.456 514.527 270.347L515.473 265.438ZM463.907 273.833V343.926H468.907V273.833H463.907ZM54.086 342.919L58.8268 277.578L53.8399 277.216L49.0991 342.557L54.086 342.919ZM56.3333 277.397C56.9177 274.966 56.9174 274.966 56.917 274.966C56.9166 274.966 56.9161 274.966 56.9154 274.965C56.9141 274.965 56.9122 274.965 56.9097 274.964C56.9047 274.963 56.8975 274.961 56.888 274.959C56.869 274.954 56.8409 274.948 56.8041 274.939C56.7303 274.921 56.6214 274.895 56.4791 274.862C56.1945 274.794 55.7763 274.696 55.2393 274.571C54.1654 274.322 52.616 273.967 50.7092 273.544C46.897 272.699 41.6504 271.579 35.9165 270.483C24.5622 268.314 10.9306 266.166 2.87054 266.584L3.12946 271.577C10.4847 271.196 23.5197 273.206 34.9783 275.395C40.6508 276.478 45.8472 277.587 49.6263 278.426C51.5153 278.845 53.0486 279.196 54.1086 279.442C54.6385 279.565 55.05 279.662 55.3284 279.727C55.4675 279.76 55.5734 279.786 55.6441 279.802C55.6795 279.811 55.706 279.817 55.7236 279.821C55.7324 279.824 55.7389 279.825 55.7431 279.826C55.7453 279.827 55.7468 279.827 55.7478 279.827C55.7483 279.827 55.7486 279.827 55.7488 279.827C55.749 279.828 55.749 279.828 56.3333 277.397ZM5.00172 270.578C15.4157 256.66 28.749 238.84 39.4789 224.499C44.8438 217.329 49.5578 211.028 52.9306 206.52C54.6171 204.267 55.9681 202.461 56.8977 201.218C57.3624 200.597 57.7217 200.117 57.9649 199.792C58.0865 199.63 58.179 199.506 58.2412 199.423C58.2724 199.381 58.2955 199.35 58.3114 199.329C58.3192 199.319 58.3252 199.31 58.3291 199.305C58.3321 199.301 58.3315 199.302 58.3336 199.299C58.3341 199.299 58.3344 199.298 58.3347 199.298C58.3349 199.298 58.335 199.297 56.3333 197.8C54.3316 196.302 54.3315 196.302 54.3312 196.302C54.331 196.303 54.3306 196.303 54.3301 196.304C54.3299 196.304 54.3269 196.308 54.3257 196.31C54.3214 196.316 54.3162 196.323 54.308 196.334C54.2926 196.354 54.2685 196.386 54.2377 196.427C54.1755 196.511 54.0831 196.634 53.9615 196.797C53.7183 197.122 53.359 197.602 52.8942 198.223C51.9647 199.465 50.6136 201.271 48.9272 203.525C45.5544 208.033 40.8404 214.333 35.4754 221.504C24.7456 235.844 11.4123 253.664 0.998284 267.583L5.00172 270.578ZM262.685 515V423.523H257.685V515H262.685ZM260.185 512.5C256.665 512.5 252.132 511.341 246.759 509.117C241.426 506.909 235.448 503.729 229.094 499.869C216.389 492.151 202.37 481.828 189.294 471.46C176.228 461.101 164.152 450.736 155.34 442.958C150.934 439.07 147.347 435.831 144.863 433.565C143.621 432.432 142.654 431.543 141.999 430.937C141.672 430.634 141.422 430.403 141.255 430.247C141.171 430.169 141.108 430.11 141.066 430.071C141.045 430.051 141.03 430.037 141.019 430.027C141.014 430.022 141.01 430.019 141.008 430.016C141.006 430.015 141.006 430.014 141.005 430.014C141.004 430.013 141.004 430.013 139.296 431.839C137.588 433.664 137.589 433.665 137.59 433.666C137.59 433.666 137.592 433.667 137.593 433.669C137.596 433.672 137.6 433.676 137.606 433.681C137.617 433.691 137.634 433.707 137.655 433.727C137.699 433.768 137.764 433.828 137.85 433.908C138.021 434.067 138.274 434.302 138.605 434.608C139.268 435.221 140.243 436.118 141.494 437.259C143.995 439.541 147.603 442.799 152.031 446.707C160.885 454.522 173.031 464.947 186.188 475.378C199.334 485.801 213.537 496.269 226.498 504.143C232.978 508.079 239.195 511.397 244.847 513.737C250.461 516.061 255.705 517.5 260.185 517.5V512.5ZM139.296 431.839C140.736 429.795 140.736 429.795 140.735 429.795C140.735 429.794 140.734 429.794 140.733 429.793C140.73 429.791 140.727 429.788 140.722 429.785C140.712 429.778 140.696 429.767 140.676 429.752C140.635 429.723 140.573 429.68 140.491 429.622C140.328 429.506 140.084 429.332 139.765 429.105C139.128 428.649 138.191 427.976 136.997 427.109C134.61 425.374 131.197 422.864 127.101 419.765C118.904 413.566 107.985 405.024 97.0747 395.64C86.151 386.243 75.2986 376.056 67.1979 366.564C63.1466 361.817 59.8336 357.302 57.545 353.194C55.2347 349.048 54.0926 345.535 54.0926 342.738H49.0926C49.0926 346.771 50.6912 351.166 53.1772 355.628C55.6849 360.129 59.2238 364.923 63.3947 369.81C71.7384 379.587 82.812 389.967 93.8142 399.43C104.83 408.905 115.837 417.515 124.085 423.753C128.21 426.873 131.649 429.403 134.058 431.153C135.263 432.029 136.21 432.71 136.858 433.172C137.181 433.404 137.43 433.58 137.598 433.7C137.682 433.759 137.746 433.805 137.79 433.835C137.811 433.851 137.828 433.862 137.839 433.87C137.845 433.874 137.849 433.877 137.852 433.879C137.853 433.88 137.854 433.881 137.855 433.882C137.856 433.882 137.857 433.883 139.296 431.839ZM141.075 322.329C123.005 304.035 101.965 292.206 85.4886 284.954C77.2422 281.325 70.1165 278.832 65.043 277.244C62.5056 276.45 60.4797 275.882 59.0814 275.51C58.3823 275.325 57.8398 275.188 57.4687 275.097C57.2831 275.052 57.1404 275.018 57.0422 274.995C56.9931 274.983 56.9552 274.974 56.9286 274.968C56.9154 274.965 56.9049 274.963 56.8974 274.961C56.8936 274.96 56.8905 274.96 56.8882 274.959C56.887 274.959 56.8858 274.959 56.8852 274.958C56.8842 274.958 56.8834 274.958 56.3333 277.397C55.7833 279.836 55.7828 279.835 55.7825 279.835C55.7826 279.835 55.7825 279.835 55.7828 279.835C55.7833 279.836 55.7846 279.836 55.7866 279.836C55.7905 279.837 55.7974 279.839 55.807 279.841C55.8263 279.845 55.8569 279.852 55.8986 279.862C55.982 279.882 56.1098 279.912 56.2801 279.954C56.6208 280.037 57.1316 280.166 57.7982 280.343C59.1314 280.697 61.087 281.245 63.5496 282.016C68.4761 283.558 75.4244 285.987 83.4744 289.531C99.591 296.624 120.032 308.139 137.518 325.842L141.075 322.329ZM141.796 431.839V324.085H136.796V431.839H141.796ZM464.044 343.11C463.535 344.585 461.922 347.203 459.171 350.858C456.488 354.424 452.912 358.735 448.732 363.523C440.378 373.093 429.709 384.46 419.18 395.377C408.657 406.288 398.294 416.729 390.56 424.444C386.694 428.301 383.486 431.475 381.245 433.685C380.124 434.79 379.246 435.654 378.647 436.241C378.348 436.534 378.119 436.759 377.965 436.91C377.888 436.985 377.83 437.042 377.791 437.08C377.771 437.099 377.757 437.114 377.747 437.123C377.742 437.128 377.738 437.132 377.736 437.134C377.735 437.135 377.734 437.136 377.733 437.136C377.733 437.137 377.732 437.137 379.48 438.925C381.227 440.713 381.227 440.713 381.228 440.712C381.229 440.712 381.23 440.711 381.231 440.709C381.234 440.707 381.237 440.703 381.242 440.698C381.252 440.688 381.267 440.674 381.287 440.654C381.327 440.616 381.386 440.558 381.463 440.482C381.619 440.33 381.849 440.104 382.149 439.809C382.75 439.22 383.632 438.353 384.755 437.245C387.002 435.03 390.217 431.849 394.091 427.984C401.839 420.256 412.226 409.79 422.779 398.847C433.328 387.91 444.064 376.474 452.499 366.811C456.715 361.981 460.38 357.568 463.166 353.865C465.886 350.251 467.971 347.057 468.77 344.742L464.044 343.11ZM377.823 437.053C355.345 456.941 333.629 475.861 313.56 489.815C293.401 503.831 275.359 512.5 260.185 512.5V517.5C277.011 517.5 296.157 508.005 316.415 493.92C336.763 479.772 358.694 460.655 381.136 440.798L377.823 437.053ZM260.185 426.023C265.439 426.023 271.188 424.311 277.124 421.511C283.082 418.7 289.385 414.718 295.789 409.998C308.595 400.56 322.014 388.022 334.182 375.55C346.361 363.066 357.342 350.59 365.275 341.24C369.243 336.563 372.451 332.665 374.669 329.934C375.778 328.569 376.639 327.495 377.224 326.761C377.517 326.394 377.741 326.112 377.891 325.922C377.967 325.826 378.024 325.754 378.063 325.705C378.082 325.68 378.097 325.662 378.107 325.649C378.112 325.643 378.115 325.638 378.118 325.634C378.119 325.633 378.12 325.631 378.121 325.631C378.122 325.63 378.122 325.629 376.156 324.085C374.189 322.542 374.189 322.542 374.189 322.543C374.188 322.543 374.187 322.544 374.186 322.546C374.184 322.548 374.181 322.553 374.176 322.558C374.167 322.57 374.154 322.587 374.135 322.61C374.099 322.657 374.043 322.727 373.97 322.82C373.823 323.005 373.604 323.282 373.315 323.643C372.739 324.366 371.887 325.429 370.787 326.782C368.589 329.489 365.404 333.359 361.462 338.005C353.577 347.299 342.676 359.683 330.603 372.058C318.519 384.445 305.316 396.766 292.822 405.973C286.576 410.576 280.559 414.362 274.991 416.989C269.399 419.627 264.413 421.023 260.185 421.023V426.023ZM377.671 326.074C401.899 307.601 424.312 295.123 440.653 287.268C448.823 283.341 455.473 280.571 460.069 278.786C462.367 277.894 464.151 277.248 465.355 276.827C465.957 276.616 466.414 276.462 466.717 276.361C466.869 276.311 466.982 276.274 467.056 276.25C467.093 276.238 467.12 276.229 467.137 276.224C467.146 276.221 467.152 276.219 467.155 276.218C467.157 276.218 467.158 276.217 467.159 276.217C467.159 276.217 467.159 276.217 467.159 276.217C467.159 276.217 467.159 276.217 466.407 273.833C465.656 271.448 465.655 271.448 465.655 271.449C465.654 271.449 465.653 271.449 465.652 271.45C465.65 271.45 465.647 271.451 465.644 271.452C465.638 271.454 465.629 271.457 465.617 271.461C465.594 271.468 465.561 271.479 465.518 271.493C465.432 271.52 465.306 271.561 465.142 271.616C464.814 271.725 464.332 271.888 463.705 272.107C462.449 272.546 460.612 273.211 458.259 274.125C453.553 275.953 446.784 278.774 438.487 282.762C421.896 290.737 399.183 303.385 374.64 322.097L377.671 326.074ZM379.48 438.925C381.979 438.853 381.979 438.853 381.979 438.852C381.979 438.852 381.979 438.851 381.979 438.85C381.978 438.848 381.978 438.844 381.978 438.84C381.978 438.832 381.978 438.819 381.977 438.802C381.976 438.768 381.975 438.718 381.973 438.651C381.969 438.517 381.963 438.318 381.956 438.056C381.94 437.532 381.918 436.759 381.889 435.758C381.831 433.756 381.747 430.847 381.642 427.216C381.432 419.953 381.138 409.803 380.803 398.251C380.135 375.147 379.304 346.437 378.655 324.013L373.657 324.158C374.306 346.582 375.137 375.292 375.806 398.396C376.14 409.948 376.434 420.098 376.644 427.361C376.749 430.992 376.833 433.901 376.891 435.903C376.92 436.903 376.942 437.677 376.958 438.201C376.965 438.462 376.971 438.662 376.975 438.795C376.977 438.862 376.978 438.913 376.979 438.947C376.98 438.964 376.98 438.976 376.98 438.985C376.98 438.988 376.981 438.993 376.981 438.994C376.981 438.995 376.981 438.996 376.981 438.997C376.981 438.997 376.981 438.998 379.48 438.925ZM457.526 192.485L374.792 108.136L371.222 111.637L453.956 195.986L457.526 192.485ZM374.792 108.136L318.859 51.1112L315.289 54.6124L371.222 111.637L374.792 108.136ZM374.933 111.48L462.408 5.74674L458.555 2.55952L371.081 108.293L374.933 111.48ZM196.771 51.1108L140.815 108.136L144.384 111.637L200.34 54.6128L196.771 51.1108ZM140.815 108.136L54.5489 196.049L58.1177 199.551L144.384 111.637L140.815 108.136ZM144.463 108.22L49.9005 2.48654L46.1736 5.81971L140.736 111.553L144.463 108.22ZM161.636 206.233C182.508 207.728 195.006 220.632 203.232 239.112C211.514 257.721 215.233 281.521 218.602 303.905L223.546 303.161C220.202 280.935 216.409 256.423 207.8 237.079C199.133 217.607 185.358 202.919 161.993 201.246L161.636 206.233ZM4.59183 271.008C48.3956 234.837 78.1022 216.179 123.081 209.304L122.326 204.361C76.0069 211.441 45.4483 230.786 1.40817 267.153L4.59183 271.008ZM123.081 209.304C134.776 207.516 147.531 206.522 161.864 206.239L161.765 201.24C147.262 201.527 134.283 202.534 122.326 204.361L123.081 209.304ZM350.116 206.236C365.145 207.097 378.787 208.741 391.289 211.037L392.192 206.119C379.471 203.783 365.622 202.116 350.402 201.244L350.116 206.236ZM391.289 211.037C447.269 221.318 480.63 244.697 513.479 269.877L516.521 265.909C483.469 240.573 449.346 216.615 392.192 206.119L391.289 211.037ZM261.402 390.066C275.615 382.151 283.095 366.444 287.786 348.109L282.942 346.87C278.333 364.884 271.305 378.828 258.969 385.698L261.402 390.066ZM287.786 348.109C291.255 334.554 293.284 319.204 295.247 303.85L290.287 303.216C288.318 318.623 286.322 333.664 282.942 346.87L287.786 348.109ZM227.097 348.196C232.549 366.717 241.389 381.599 259.1 390.134L261.271 385.63C245.313 377.94 237.128 364.564 231.893 346.784L227.097 348.196ZM285.364 344.99H229.495V349.99H285.364V344.99ZM5.00172 270.578L58.335 199.297L54.3316 196.302L0.998284 267.583L5.00172 270.578ZM45.5774 3.70586C31.5392 80.9054 39.5972 123.136 49.8995 177.118L54.8108 176.181C44.5471 122.401 36.6238 80.8909 50.4967 4.6004L45.5774 3.70586ZM49.8995 177.118C51.2023 183.945 52.5399 190.954 53.8741 198.249L58.7925 197.35C57.4543 190.033 56.1132 183.005 54.8108 176.181L49.8995 177.118ZM120.379 207.751C131.273 235.333 153.708 249.6 174.515 262.905L177.209 258.693C156.238 245.284 135.248 231.786 125.029 205.914L120.379 207.751ZM174.515 262.905C193.12 274.801 210.257 285.839 218.799 304.57L223.349 302.496C214.09 282.194 195.559 270.426 177.209 258.693L174.515 262.905ZM218.602 303.905L218.773 305.041L223.717 304.298L223.546 303.161L218.602 303.905ZM218.773 305.041C221.137 320.755 223.34 335.432 227.097 348.196L231.893 346.784C228.252 334.415 226.095 320.104 223.717 304.298L218.773 305.041ZM295.043 304.568C306.254 279.909 326.681 269.616 346.647 259.627L344.41 255.155C324.562 265.085 302.52 276.041 290.491 302.498L295.043 304.568ZM346.647 259.627C368.241 248.823 389.66 238.243 394.211 208.962L389.27 208.194C385.162 234.628 366.281 244.212 344.41 255.155L346.647 259.627ZM260.185 421.023C248.186 421.023 236.291 414.965 223.714 404.847C211.149 394.739 198.262 380.882 184.24 365.795L180.577 369.199C194.525 384.206 207.675 398.361 220.58 408.743C233.472 419.114 246.481 426.023 260.185 426.023V421.023ZM184.24 365.795C170.952 351.499 156.697 336.159 140.954 322.214L137.639 325.957C153.171 339.715 167.265 354.876 180.577 369.199L184.24 365.795ZM218.602 303.905C218.659 304.285 218.716 304.663 218.773 305.041L223.717 304.298C223.66 303.92 223.603 303.541 223.546 303.161L218.602 303.905ZM350.112 201.244C338.368 201.937 329.022 205.602 321.572 211.567C314.152 217.508 308.757 225.612 304.69 234.969C296.599 253.583 293.537 277.741 290.553 301.136L295.512 301.769C298.525 278.155 301.528 254.787 309.276 236.962C313.128 228.098 318.097 220.755 324.697 215.47C331.268 210.209 339.601 206.873 350.406 206.235L350.112 201.244ZM290.553 301.136C290.464 301.83 290.376 302.523 290.287 303.216L295.247 303.85C295.335 303.156 295.424 302.462 295.512 301.769L290.553 301.136ZM295.247 303.85L295.512 301.769L290.553 301.136L290.287 303.217L295.247 303.85ZM381.979 438.853L378.655 324.013L373.657 324.158L376.981 438.998L381.979 438.853Z" fill="#222C41"/>
<path d="M388.185 202.397C375.981 200.173 340.778 196.647 332.481 201.399C324.185 206.151 303.672 212.091 295.195 256.047C286.717 300.004 286.259 326.14 280.333 341.584H234.111C230.597 329.742 228.357 314.97 226.106 300.119L225.98 299.289L225.815 298.198C315.889 238.227 259 175.262 370.407 115.861C429.667 163.382 483 238.227 483 238.227C437.963 208.527 404.778 205.419 388.185 202.397Z" fill="#29D0C8"/>
</svg>
